<svg xmlns="http://www.w3.org/2000/svg" width="282" height="201.724" viewBox="0 0 282 201.724">
  <g id="Group_3032" data-name="Group 3032" transform="translate(-47 -296)">
    <g id="Group_1890" data-name="Group 1890" transform="translate(46.007 229.294)">
      <g id="Group_1875" data-name="Group 1875" transform="translate(35.779 66.706)">
        <rect id="Rectangle_386" data-name="Rectangle 386" width="85.757" height="94.575" transform="translate(1.684 2.219)" fill="#d4d4d4" opacity="0.35" style="mix-blend-mode: multiply;isolation: isolate"/>
        <g id="Group_1874" data-name="Group 1874">
          <path id="Path_3286" data-name="Path 3286" d="M0,0H82.21V91.348H0Z" transform="translate(1.578 1.578)" fill="#43b17e"/>
          <path id="Path_3259" data-name="Path 3259" d="M130.036,69.5v35.011h24.209l21.586,18.221V69.5Z" transform="translate(-92.042 -67.926)" fill="#98d4b8"/>
          <g id="Group_1871" data-name="Group 1871" transform="translate(2.351 2.312)">
            <g id="Group_1869" data-name="Group 1869" transform="translate(0 52.279)">
              <rect id="Rectangle_388" data-name="Rectangle 388" width="82.21" height="2.515" fill="#eadacf"/>
            </g>
            <rect id="Rectangle_389" data-name="Rectangle 389" width="0.559" height="45.007" transform="translate(7.016)" fill="#d4d4d4" opacity="0.63" style="mix-blend-mode: multiply;isolation: isolate"/>
            <g id="Group_1870" data-name="Group 1870" transform="translate(0.519 3.622)" opacity="0.63" style="mix-blend-mode: multiply;isolation: isolate">
              <rect id="Rectangle_390" data-name="Rectangle 390" width="81.339" height="0.559" transform="translate(0 3.39)" fill="#d4d4d4"/>
              <rect id="Rectangle_391" data-name="Rectangle 391" width="81.339" height="0.559" fill="#d4d4d4"/>
              <rect id="Rectangle_392" data-name="Rectangle 392" width="81.339" height="0.559" transform="translate(0 7.339)" fill="#d4d4d4"/>
              <rect id="Rectangle_393" data-name="Rectangle 393" width="81.339" height="0.559" transform="translate(0 14.924)" fill="#d4d4d4"/>
              <rect id="Rectangle_394" data-name="Rectangle 394" width="81.339" height="0.559" transform="translate(0 18.929)" fill="#d4d4d4"/>
              <rect id="Rectangle_395" data-name="Rectangle 395" width="81.339" height="0.559" transform="translate(0 23.169)" fill="#d4d4d4"/>
              <rect id="Rectangle_396" data-name="Rectangle 396" width="81.339" height="0.559" transform="translate(0 11.27)" fill="#d4d4d4"/>
            </g>
          </g>
          <path id="Path_3260" data-name="Path 3260" d="M146.809,122.736H68.495V69.5H65.47v91.348h3.025V126.48h78.314Z" transform="translate(-63.891 -67.926)" fill="#d4d4d4" opacity="0.63" style="mix-blend-mode: multiply;isolation: isolate"/>
          <g id="Group_1873" data-name="Group 1873">
            <g id="Group_1872" data-name="Group 1872">
              <path id="Path_3261" data-name="Path 3261" d="M148.038,161.21H62.671v-94.5h85.367Zm-82.21-3.157h79.054V69.863H65.828Z" transform="translate(-62.671 -66.706)" fill="#fff"/>
              <rect id="Rectangle_397" data-name="Rectangle 397" width="82.21" height="2.515" transform="translate(1.578 54.376)" fill="#fff"/>
            </g>
            <rect id="Rectangle_398" data-name="Rectangle 398" width="1.079" height="49.177" transform="translate(8.418 1.578)" fill="#fff"/>
            <rect id="Rectangle_399" data-name="Rectangle 399" width="81.339" height="1.079" transform="translate(1.578 4.808)" fill="#fff"/>
            <rect id="Rectangle_400" data-name="Rectangle 400" width="81.339" height="1.079" transform="translate(1.578 8.297)" fill="#fff"/>
            <rect id="Rectangle_401" data-name="Rectangle 401" width="81.339" height="1.079" transform="translate(1.578 12.191)" fill="#fff"/>
            <rect id="Rectangle_402" data-name="Rectangle 402" width="81.339" height="1.079" transform="translate(1.578 16.152)" fill="#fff"/>
            <rect id="Rectangle_403" data-name="Rectangle 403" width="81.339" height="1.078" transform="translate(1.578 19.831)" fill="#fff"/>
            <rect id="Rectangle_404" data-name="Rectangle 404" width="81.339" height="1.079" transform="translate(1.578 23.839)" fill="#fff"/>
            <rect id="Rectangle_405" data-name="Rectangle 405" width="81.339" height="1.079" transform="translate(1.578 28.056)" fill="#fff"/>
          </g>
        </g>
      </g>
      <rect id="Rectangle_406" data-name="Rectangle 406" width="282" height="3.177" transform="translate(0.993 252.228)" fill="#c1cfd4"/>
      <g id="Group_1879" data-name="Group 1879" transform="translate(140.787 81.068)">
        <g id="Group_1878" data-name="Group 1878" transform="translate(0 0)">
          <path id="Path_3262" data-name="Path 3262" d="M381.715,134.019l-22.88-35.385c-3.557-5.5-9.894-7.792-15.767-5.7l-58.683,20.892.56,1.459L343.608,94.4a11.736,11.736,0,0,1,13.89,5.069l22.879,35.385a35.481,35.481,0,0,1,5.613,19.327V272.239h1.585V154.183A37.019,37.019,0,0,0,381.715,134.019Z" transform="translate(-264.346 -92.17)" fill="#5b6066"/>
          <g id="Group_1877" data-name="Group 1877" transform="translate(0 17.631)">
            <rect id="Rectangle_407" data-name="Rectangle 407" width="3.851" height="10.225" rx="1.925" transform="translate(19.572)" fill="#85c1d0"/>
            <g id="Group_1876" data-name="Group 1876" transform="translate(0 6.409)">
              <path id="Path_3263" data-name="Path 3263" d="M270.092,134.795a23.249,23.249,0,0,0-21.237,13.34h42.474A23.248,23.248,0,0,0,270.092,134.795Z" transform="translate(-248.855 -134.795)" fill="#fff"/>
            </g>
          </g>
        </g>
        <rect id="Rectangle_408" data-name="Rectangle 408" width="21.278" height="2.406" transform="translate(112.027 177.723)" fill="#fff"/>
      </g>
      <g id="Group_1884" data-name="Group 1884" transform="translate(12.034 186.038)">
        <g id="Group_1880" data-name="Group 1880" transform="translate(9.427)">
          <path id="Path_3264" data-name="Path 3264" d="M49.131,306.749a44.445,44.445,0,0,1-1.218-7.756c-.281-4.03-.086-9.741,2.442-14.059a12.4,12.4,0,0,1,7.97-5.9l.266,1.052a11.35,11.35,0,0,0-7.3,5.391c-4.589,7.833-1.15,20.855-1.114,20.986Z" transform="translate(-41.876 -278.615)" fill="#91af6d"/>
          <path id="Path_3265" data-name="Path 3265" d="M44.137,305.169s-1.689-7.194-6.853-4.783C37.284,300.387,38.584,307.459,44.137,305.169Z" transform="translate(-37.284 -287.707)" fill="#91af6d"/>
          <path id="Path_3266" data-name="Path 3266" d="M57.108,300.8s-6.545-1.721-8.489,3.637C48.619,304.433,54.8,306.342,57.108,300.8Z" transform="translate(-42.226 -287.987)" fill="#91af6d"/>
          <path id="Path_3267" data-name="Path 3267" d="M47.823,289.1s2.623-6.431-2.337-9.238C45.486,279.861,42.737,285.9,47.823,289.1Z" transform="translate(-40.537 -278.974)" fill="#91af6d"/>
          <path id="Path_3268" data-name="Path 3268" d="M51.335,291.19s5.514,3.435,8.765-1.246C60.1,289.944,54.984,286.419,51.335,291.19Z" transform="translate(-43.41 -282.823)" fill="#91af6d"/>
          <path id="Path_3269" data-name="Path 3269" d="M59.851,280.788s5.514,3.435,8.765-1.246C68.616,279.542,63.5,276.017,59.851,280.788Z" transform="translate(-47.123 -278.288)" fill="#91af6d"/>
        </g>
        <g id="Group_1881" data-name="Group 1881" transform="translate(7.763 19.749)">
          <path id="Path_3270" data-name="Path 3270" d="M50.847,317.66l-3.3-4.356H38.177l-3.3,4.356a2.676,2.676,0,0,0-.184,2.955l2.312,4H48.718l2.312-4A2.676,2.676,0,0,0,50.847,317.66Z" transform="translate(-34.333 -313.304)" fill="#8a8a8a"/>
        </g>
        <g id="Group_1883" data-name="Group 1883" transform="translate(0 31.237)">
          <path id="Path_3271" data-name="Path 3271" d="M20.569,333.672v35.016h32.19V333.672Zm2.2,16.407v-14.2H50.557v14.2Zm0,16.407v-14.2H50.557v14.2Z" transform="translate(-20.569 -333.672)" fill="#fff"/>
          <g id="Group_1882" data-name="Group 1882" transform="translate(4.993 4.352)">
            <rect id="Rectangle_409" data-name="Rectangle 409" width="2.658" height="12.029" rx="0.682" fill="#5b6066"/>
            <rect id="Rectangle_410" data-name="Rectangle 410" width="2.658" height="12.029" rx="0.682" transform="translate(3.103)" fill="#cac6ad"/>
            <rect id="Rectangle_411" data-name="Rectangle 411" width="2.658" height="12.029" rx="0.682" transform="translate(6.141)" fill="#8a8a8a"/>
            <path id="Path_3272" data-name="Path 3272" d="M53.656,352.376,52,353.3a.381.381,0,0,1-.513-.133l-5.822-9.786a.359.359,0,0,1,.138-.5l1.651-.926a.382.382,0,0,1,.513.134l5.822,9.786A.358.358,0,0,1,53.656,352.376Z" transform="translate(-36.484 -341.617)" fill="#cac6ad"/>
            <path id="Path_3273" data-name="Path 3273" d="M60.188,352.376l-1.651.926a.382.382,0,0,1-.513-.133L52.2,343.383a.359.359,0,0,1,.137-.5l1.652-.926a.382.382,0,0,1,.513.134l5.822,9.786A.358.358,0,0,1,60.188,352.376Z" transform="translate(-39.332 -341.617)" fill="#cac6ad"/>
          </g>
        </g>
      </g>
      <g id="Group_1885" data-name="Group 1885" transform="translate(50.87 191.513)">
        <path id="Path_3274" data-name="Path 3274" d="M124.92,400.141l-.889,12.073h3.012l4.776-12.073Z" transform="translate(-104.514 -336.89)" fill="#775a43"/>
        <path id="Path_3275" data-name="Path 3275" d="M367.593,400.141l.889,12.073H365.47l-4.776-12.073Z" transform="translate(-207.699 -336.89)" fill="#775a43"/>
        <path id="Path_3276" data-name="Path 3276" d="M121.442,323.672l2.991-25.381c.82-5.876,6.572-10.3,13.4-10.3H248.655c6.576,0,12.195,4.11,13.3,9.732l4.334,25.946Z" transform="translate(-103.386 -287.995)" fill="#09493b"/>
        <path id="Path_3277" data-name="Path 3277" d="M267.763,326.124s-11.151,2.97-15.553,9.226H139.669a13.81,13.81,0,0,0-13.443-8.651v15.29H268.942Z" transform="translate(-105.471 -304.619)" fill="#d4d4d4" opacity="0.55" style="mix-blend-mode: multiply;isolation: isolate"/>
        <rect id="Rectangle_412" data-name="Rectangle 412" width="146.348" height="6.289" transform="translate(17.123 58.282)" fill="#7e6961"/>
        <path id="Path_3278" data-name="Path 3278" d="M262.611,322.153h-3.2a17.917,17.917,0,0,0-14.5,7.322,27.245,27.245,0,0,0-3.6,7.593l-61.36.975-61.36-.975a27.227,27.227,0,0,0-3.6-7.593,17.917,17.917,0,0,0-14.5-7.322H97.3c-6.087,0-8.861,5.62-7.549,11.564,1.606,7.277,3.6,16.743,9.124,24.59a14.1,14.1,0,0,0,11.555,5.885H249.481a14.1,14.1,0,0,0,11.554-5.885c5.522-7.848,7.518-17.313,9.124-24.59C271.472,327.773,268.7,322.153,262.611,322.153Z" transform="translate(-89.427 -302.888)" fill="#09493b"/>
        <path id="Path_3279" data-name="Path 3279" d="M262.327,362.946H130.274a3.34,3.34,0,0,1-3.339-3.34h0a10.574,10.574,0,0,1,10.574-10.574H256.172a9.5,9.5,0,0,1,9.495,9.5v1.078A3.34,3.34,0,0,1,262.327,362.946Z" transform="translate(-105.781 -314.607)" fill="#365065"/>
        <path id="Path_3280" data-name="Path 3280" d="M192.812,360.812H129.853a2.918,2.918,0,0,1-2.918-2.919h0a9.322,9.322,0,0,1,9.322-9.322h56.555a2.919,2.919,0,0,1,2.918,2.918v6.4A2.919,2.919,0,0,1,192.812,360.812Z" transform="translate(-105.781 -314.406)" fill="#56c364"/>
        <path id="Path_3281" data-name="Path 3281" d="M316.812,360.812H253.854a2.919,2.919,0,0,1-2.919-2.919v-6.4a2.919,2.919,0,0,1,2.919-2.918h56.555a9.322,9.322,0,0,1,9.322,9.322h0A2.919,2.919,0,0,1,316.812,360.812Z" transform="translate(-159.845 -314.406)" fill="#56c364"/>
        <path id="Path_3287" data-name="Path 3287" d="M5.259,0H15.316a5.259,5.259,0,0,1,5.259,5.259v6.889a5.259,5.259,0,0,1-5.259,5.259H5.259A5.259,5.259,0,0,1,0,12.149V5.259A5.259,5.259,0,0,1,5.259,0Z" transform="translate(26.954 18.296) rotate(-4.414)" fill="#98d4b8"/>
        <rect id="Rectangle_414" data-name="Rectangle 414" width="20.575" height="17.408" rx="5.259" transform="translate(46.221 21.505)" fill="#98d4b8"/>
        <rect id="Rectangle_415" data-name="Rectangle 415" width="20.575" height="17.408" rx="5.259" transform="translate(122.455 20.026)" fill="#98d4b8"/>
      </g>
      <path id="Path_3282" data-name="Path 3282" d="M266.4,420.1c0,.927-42.243,1.678-94.352,1.678S77.7,421.027,77.7,420.1s42.243-1.678,94.353-1.678S266.4,419.173,266.4,420.1Z" transform="translate(-33.443 -153.348)" fill="#d4d4d4" opacity="0.35" style="mix-blend-mode: multiply;isolation: isolate"/>
      <g id="Group_1889" data-name="Group 1889" transform="translate(168.308 140.746)">
        <g id="Group_1888" data-name="Group 1888">
          <g id="Group_1886" data-name="Group 1886" transform="translate(42.905 10.884)">
            <path id="Path_3283" data-name="Path 3283" d="M387.354,223.23c0-3.62-3.051-5.949-6.815-5.949s-6.816,2.329-6.816,5.949a6.5,6.5,0,0,0,3.269,5.6h7.094A6.5,6.5,0,0,0,387.354,223.23Z" transform="translate(-373.723 -217.281)" fill="#8a8a8a"/>
          </g>
          <g id="Group_1887" data-name="Group 1887" transform="translate(0 22.37)">
            <rect id="Rectangle_416" data-name="Rectangle 416" width="68.332" height="3.475" fill="#fff"/>
          </g>
          <rect id="Rectangle_417" data-name="Rectangle 417" width="4.424" height="22.274" rx="1.196" transform="translate(6.533)" fill="#cac6ad"/>
          <rect id="Rectangle_418" data-name="Rectangle 418" width="4.424" height="22.274" rx="1.196" transform="translate(11.697)" fill="#cac6ad"/>
          <rect id="Rectangle_419" data-name="Rectangle 419" width="4.424" height="22.274" rx="1.196" transform="translate(16.754)" fill="#5b6066"/>
          <path id="Path_3284" data-name="Path 3284" d="M349.57,218.329l-2.749,1.713a.6.6,0,0,1-.854-.247l-9.69-18.121a.7.7,0,0,1,.228-.922l2.75-1.713a.6.6,0,0,1,.853.247l9.69,18.121A.705.705,0,0,1,349.57,218.329Z" transform="translate(-314.456 -198.403)" fill="#cac6ad"/>
          <path id="Path_3285" data-name="Path 3285" d="M360.443,218.329l-2.749,1.713a.6.6,0,0,1-.854-.247l-9.69-18.121a.7.7,0,0,1,.228-.922l2.749-1.713a.6.6,0,0,1,.854.247l9.69,18.121A.705.705,0,0,1,360.443,218.329Z" transform="translate(-319.196 -198.403)" fill="#cac6ad"/>
        </g>
        <rect id="Rectangle_420" data-name="Rectangle 420" width="2.953" height="3.175" transform="translate(7.238 2.802)" fill="#fff"/>
        <rect id="Rectangle_421" data-name="Rectangle 421" width="2.953" height="0.815" transform="translate(12.433 19.678)" fill="#fff"/>
        <rect id="Rectangle_422" data-name="Rectangle 422" width="2.953" height="0.815" transform="translate(12.433 17.152)" fill="#fff"/>
      </g>
    </g>
  </g>
</svg>
