<svg xmlns="http://www.w3.org/2000/svg" xmlns:xlink="http://www.w3.org/1999/xlink" width="19" height="19" viewBox="0 0 19 19">
  <defs>
    <clipPath id="clip-path">
      <rect id="Rectangle_130" data-name="Rectangle 130" width="19" height="19" transform="translate(67 427)" fill="#fff" stroke="#707070" stroke-width="1"/>
    </clipPath>
  </defs>
  <g id="Mask_Group_2" data-name="Mask Group 2" transform="translate(-67 -427)" clip-path="url(#clip-path)">
    <g id="password" transform="translate(67 427)">
      <path id="Path_2180" data-name="Path 2180" d="M14.844,19H4.156a1.783,1.783,0,0,1-1.781-1.781V8.906A1.783,1.783,0,0,1,4.156,7.125H14.844a1.783,1.783,0,0,1,1.781,1.781v8.313A1.783,1.783,0,0,1,14.844,19ZM4.156,8.313a.594.594,0,0,0-.594.594v8.313a.594.594,0,0,0,.594.594H14.844a.594.594,0,0,0,.594-.594V8.906a.594.594,0,0,0-.594-.594Z"/>
      <path id="Path_2181" data-name="Path 2181" d="M13.656,8.313a.594.594,0,0,1-.594-.594V4.75a3.563,3.563,0,0,0-7.125,0V7.719a.594.594,0,0,1-1.187,0V4.75a4.75,4.75,0,0,1,9.5,0V7.719A.594.594,0,0,1,13.656,8.313Z"/>
      <path id="Path_2182" data-name="Path 2182" d="M9.5,13.458a1.583,1.583,0,1,1,1.583-1.583A1.585,1.585,0,0,1,9.5,13.458Zm0-1.979a.4.4,0,1,0,.4.4A.4.4,0,0,0,9.5,11.479Z"/>
      <path id="Path_2183" data-name="Path 2183" d="M9.5,15.833a.594.594,0,0,1-.594-.594V13.063a.594.594,0,0,1,1.188,0V15.24A.594.594,0,0,1,9.5,15.833Z"/>
    </g>
  </g>
</svg>
