<svg xmlns="http://www.w3.org/2000/svg" width="272" height="117.259" viewBox="0 0 272 117.259">
  <g id="Group_3737" data-name="Group 3737" transform="translate(-53 -199)">
    <g id="Group_3736" data-name="Group 3736">
      <g id="Group_2815" data-name="Group 2815" transform="translate(215.332 208.913)">
        <rect id="Rectangle_597" data-name="Rectangle 597" width="8.736" height="17.502" transform="translate(71.476 5.518)" fill="#fff"/>
        <rect id="Rectangle_598" data-name="Rectangle 598" width="8.736" height="1.261" transform="translate(71.476 5.687)" fill="#c9ced7"/>
        <g id="Group_2754" data-name="Group 2754" transform="translate(71.091 5.133)">
          <path id="Path_6524" data-name="Path 6524" d="M142.694,173.344h-9.506V155.072h9.506v6.02a.385.385,0,0,1-.77,0v-5.25h-7.966v16.731h7.966v-9.651a.385.385,0,1,1,.77,0Z" transform="translate(-133.188 -155.072)" fill="#374450"/>
        </g>
        <g id="Group_2755" data-name="Group 2755" transform="translate(70.37 2.886)">
          <rect id="Rectangle_599" data-name="Rectangle 599" width="10.178" height="2.247" transform="translate(0.385 0.385)" fill="#fff"/>
          <path id="Path_6525" data-name="Path 6525" d="M143.2,155.173H132.252v-3.018H143.2Zm-10.178-.77h9.408v-1.477h-9.408Z" transform="translate(-132.252 -152.155)" fill="#374450"/>
        </g>
        <g id="Group_2756" data-name="Group 2756" transform="translate(75.893 8.021)">
          <path id="Path_6526" data-name="Path 6526" d="M139.806,163.046a.385.385,0,0,1-.385-.385v-3.455a.385.385,0,0,1,.77,0v3.455A.385.385,0,0,1,139.806,163.046Z" transform="translate(-139.421 -158.821)" fill="#374450"/>
        </g>
        <path id="Path_6527" data-name="Path 6527" d="M139.782,255.914H60.6v-73.6l39.592-31.36,39.592,31.36Z" transform="translate(-45.428 -148.994)" fill="#fff"/>
        <rect id="Rectangle_600" data-name="Rectangle 600" width="39.017" height="2.542" transform="translate(15.467 62.897)" fill="#c9ced7"/>
        <g id="Group_2757" data-name="Group 2757" transform="translate(14.785 1.472)">
          <path id="Path_6528" data-name="Path 6528" d="M140.052,256.153H60.1V181.985l.146-.116,39.831-31.549,39.977,31.665Zm-79.183-.77h78.413V182.357L100.075,151.3,60.868,182.357Z" transform="translate(-60.098 -150.32)" fill="#374450"/>
        </g>
        <g id="Group_2758" data-name="Group 2758" transform="translate(54.377 38.165)">
          <path id="Path_6529" data-name="Path 6529" d="M111.991,198.45v0Z" transform="translate(-111.606 -198.065)" fill="#fff"/>
          <path id="Path_6530" data-name="Path 6530" d="M111.876,267.09a.385.385,0,0,1-.385-.385v-68.37a.385.385,0,1,1,.77,0V266.7A.385.385,0,0,1,111.876,267.09Z" transform="translate(-111.491 -197.95)" fill="#374450"/>
        </g>
        <g id="Group_2759" data-name="Group 2759" transform="translate(54.377 33.446)">
          <path id="Path_6531" data-name="Path 6531" d="M111.991,192.324v0Z" transform="translate(-111.606 -191.94)" fill="#fff"/>
          <path id="Path_6532" data-name="Path 6532" d="M111.876,194.04a.385.385,0,0,1-.385-.385V192.21a.385.385,0,0,1,.77,0v1.444A.385.385,0,0,1,111.876,194.04Z" transform="translate(-111.491 -191.825)" fill="#374450"/>
        </g>
        <g id="Group_2760" data-name="Group 2760" transform="translate(54.377 1.578)">
          <path id="Path_6533" data-name="Path 6533" d="M111.991,150.957v0Z" transform="translate(-111.606 -150.572)" fill="#fff"/>
          <path id="Path_6534" data-name="Path 6534" d="M111.876,177.9a.385.385,0,0,1-.385-.385V150.842a.385.385,0,1,1,.77,0v26.669A.385.385,0,0,1,111.876,177.9Z" transform="translate(-111.491 -150.457)" fill="#374450"/>
        </g>
        <g id="Group_2761" data-name="Group 2761" transform="translate(13.127 100.745)">
          <rect id="Rectangle_601" data-name="Rectangle 601" width="1.657" height="5.789" transform="translate(0.385 0.385)" fill="#fff"/>
          <path id="Path_6535" data-name="Path 6535" d="M60.374,285.744H57.946v-6.56h2.428Zm-1.658-.77H59.6v-5.019h-.887Z" transform="translate(-57.946 -279.184)" fill="#374450"/>
        </g>
        <g id="Group_2762" data-name="Group 2762" transform="translate(29.071 22.634)">
          <path id="Path_6536" data-name="Path 6536" d="M129.784,178.56H79.028a.385.385,0,1,1,0-.77h50.756a.385.385,0,1,1,0,.77Z" transform="translate(-78.643 -177.79)" fill="#374450"/>
        </g>
        <g id="Group_2763" data-name="Group 2763" transform="translate(42.454 11.003)">
          <path id="Path_6537" data-name="Path 6537" d="M108.322,175.093a.383.383,0,0,1-.269-.109L96.13,163.352a.385.385,0,0,1,.538-.552l11.922,11.632a.385.385,0,0,1-.269.661Z" transform="translate(-96.015 -162.692)" fill="#374450"/>
        </g>
        <g id="Group_2764" data-name="Group 2764" transform="translate(54.377 11.003)">
          <path id="Path_6538" data-name="Path 6538" d="M111.876,175.093a.385.385,0,0,1-.269-.661L123.53,162.8a.385.385,0,0,1,.538.552l-11.923,11.632A.383.383,0,0,1,111.876,175.093Z" transform="translate(-111.491 -162.692)" fill="#374450"/>
        </g>
        <g id="Group_2780" data-name="Group 2780" transform="translate(59.052 37.601)">
          <rect id="Rectangle_602" data-name="Rectangle 602" width="30.334" height="2.542" transform="translate(0.386 25.296)" fill="#c9ced7"/>
          <g id="Group_2778" data-name="Group 2778" transform="translate(1.059 0)">
            <g id="Group_2765" data-name="Group 2765">
              <rect id="Rectangle_603" data-name="Rectangle 603" width="28.216" height="23.386" transform="translate(0.385 0.385)" fill="#fff"/>
              <path id="Path_6539" data-name="Path 6539" d="M147.921,221.375H118.935V197.218h28.986Zm-28.216-.77h27.445V197.988H119.705Z" transform="translate(-118.935 -197.218)" fill="#374450"/>
            </g>
            <g id="Group_2766" data-name="Group 2766" transform="translate(1.017 1.017)">
              <rect id="Rectangle_604" data-name="Rectangle 604" width="26.182" height="21.352" transform="translate(0.385 0.385)" fill="#fff"/>
              <path id="Path_6540" data-name="Path 6540" d="M147.208,220.661H120.255V198.538h26.953Zm-26.183-.77h25.412V199.308H121.025Z" transform="translate(-120.255 -198.538)" fill="#374450"/>
            </g>
            <g id="Group_2767" data-name="Group 2767" transform="translate(18.471 1.069)">
              <path id="Path_6541" data-name="Path 6541" d="M143.413,199.106v0Z" transform="translate(-143.027 -198.721)" fill="#fff"/>
              <path id="Path_6542" data-name="Path 6542" d="M143.3,220.644a.385.385,0,0,1-.385-.385V198.991a.385.385,0,0,1,.77,0v21.268A.384.384,0,0,1,143.3,220.644Z" transform="translate(-142.912 -198.606)" fill="#374450"/>
            </g>
            <g id="Group_2768" data-name="Group 2768" transform="translate(9.744 1.069)">
              <path id="Path_6543" data-name="Path 6543" d="M132.084,199.106v0Z" transform="translate(-131.699 -198.721)" fill="#fff"/>
              <path id="Path_6544" data-name="Path 6544" d="M131.969,220.644a.384.384,0,0,1-.385-.385V198.991a.385.385,0,0,1,.77,0v21.268A.385.385,0,0,1,131.969,220.644Z" transform="translate(-131.584 -198.606)" fill="#374450"/>
            </g>
            <g id="Group_2771" data-name="Group 2771" transform="translate(2.245 4.49)">
              <g id="Group_2769" data-name="Group 2769">
                <path id="Path_6545" data-name="Path 6545" d="M122.235,207.736a.385.385,0,0,1-.273-.657l3.919-3.919a.385.385,0,1,1,.545.545l-3.919,3.919A.384.384,0,0,1,122.235,207.736Z" transform="translate(-121.85 -203.047)" fill="#374450"/>
              </g>
              <g id="Group_2770" data-name="Group 2770" transform="translate(2.934 0.974)">
                <path id="Path_6546" data-name="Path 6546" d="M126.044,206.639a.385.385,0,0,1-.273-.657l1.557-1.558a.385.385,0,0,1,.545.545l-1.557,1.558A.383.383,0,0,1,126.044,206.639Z" transform="translate(-125.659 -204.312)" fill="#374450"/>
              </g>
            </g>
            <g id="Group_2774" data-name="Group 2774" transform="translate(11.863 4.49)">
              <g id="Group_2772" data-name="Group 2772">
                <path id="Path_6547" data-name="Path 6547" d="M134.718,207.736a.385.385,0,0,1-.272-.657l3.919-3.919a.385.385,0,0,1,.545.545l-3.919,3.919A.387.387,0,0,1,134.718,207.736Z" transform="translate(-134.334 -203.047)" fill="#374450"/>
              </g>
              <g id="Group_2773" data-name="Group 2773" transform="translate(2.934 0.974)">
                <path id="Path_6548" data-name="Path 6548" d="M138.527,206.639a.385.385,0,0,1-.273-.657l1.557-1.558a.385.385,0,0,1,.545.545l-1.557,1.558A.38.38,0,0,1,138.527,206.639Z" transform="translate(-138.142 -204.312)" fill="#374450"/>
              </g>
            </g>
            <g id="Group_2777" data-name="Group 2777" transform="translate(21.479 4.49)">
              <g id="Group_2775" data-name="Group 2775">
                <path id="Path_6549" data-name="Path 6549" d="M147.2,207.736a.385.385,0,0,1-.272-.657l3.919-3.919a.385.385,0,0,1,.545.545l-3.919,3.919A.387.387,0,0,1,147.2,207.736Z" transform="translate(-146.817 -203.047)" fill="#374450"/>
              </g>
              <g id="Group_2776" data-name="Group 2776" transform="translate(2.934 0.974)">
                <path id="Path_6550" data-name="Path 6550" d="M151.01,206.639a.385.385,0,0,1-.272-.657l1.557-1.558a.385.385,0,0,1,.545.545l-1.557,1.558A.384.384,0,0,1,151.01,206.639Z" transform="translate(-150.626 -204.312)" fill="#374450"/>
              </g>
            </g>
          </g>
          <g id="Group_2779" data-name="Group 2779" transform="translate(0 23.386)">
            <path id="Path_6551" data-name="Path 6551" d="M148.665,229.87h-31.1v-2.295h31.1Zm-30.334-.77h29.564v-.754H118.33Z" transform="translate(-117.56 -227.575)" fill="#374450"/>
          </g>
        </g>
        <g id="Group_2796" data-name="Group 2796" transform="translate(59.052 73.292)">
          <rect id="Rectangle_605" data-name="Rectangle 605" width="30.334" height="2.542" transform="translate(0.386 25.297)" fill="#c9ced7"/>
          <g id="Group_2794" data-name="Group 2794" transform="translate(1.059)">
            <g id="Group_2781" data-name="Group 2781">
              <rect id="Rectangle_606" data-name="Rectangle 606" width="28.216" height="23.386" transform="translate(0.385 0.385)" fill="#fff"/>
              <path id="Path_6552" data-name="Path 6552" d="M147.921,267.7H118.935V243.547h28.986Zm-28.216-.77h27.445V244.317H119.705Z" transform="translate(-118.935 -243.547)" fill="#374450"/>
            </g>
            <g id="Group_2782" data-name="Group 2782" transform="translate(1.017 1.017)">
              <rect id="Rectangle_607" data-name="Rectangle 607" width="26.182" height="21.352" transform="translate(0.385 0.385)" fill="#fff"/>
              <path id="Path_6553" data-name="Path 6553" d="M147.208,266.99H120.255V244.867h26.953Zm-26.183-.77h25.412V245.637H121.025Z" transform="translate(-120.255 -244.867)" fill="#374450"/>
            </g>
            <g id="Group_2783" data-name="Group 2783" transform="translate(18.471 1.07)">
              <path id="Path_6554" data-name="Path 6554" d="M143.413,245.436v0Z" transform="translate(-143.027 -245.051)" fill="#fff"/>
              <path id="Path_6555" data-name="Path 6555" d="M143.3,266.974a.385.385,0,0,1-.385-.385V245.321a.385.385,0,0,1,.77,0v21.268A.385.385,0,0,1,143.3,266.974Z" transform="translate(-142.912 -244.936)" fill="#374450"/>
            </g>
            <g id="Group_2784" data-name="Group 2784" transform="translate(9.744 1.07)">
              <path id="Path_6556" data-name="Path 6556" d="M132.084,245.436v0Z" transform="translate(-131.699 -245.051)" fill="#fff"/>
              <path id="Path_6557" data-name="Path 6557" d="M131.969,266.974a.385.385,0,0,1-.385-.385V245.321a.385.385,0,1,1,.77,0v21.268A.385.385,0,0,1,131.969,266.974Z" transform="translate(-131.584 -244.936)" fill="#374450"/>
            </g>
            <g id="Group_2787" data-name="Group 2787" transform="translate(2.245 4.491)">
              <g id="Group_2785" data-name="Group 2785">
                <path id="Path_6558" data-name="Path 6558" d="M122.235,254.066a.386.386,0,0,1-.273-.658l3.919-3.919a.385.385,0,0,1,.545.545l-3.919,3.919A.382.382,0,0,1,122.235,254.066Z" transform="translate(-121.85 -249.377)" fill="#374450"/>
              </g>
              <g id="Group_2786" data-name="Group 2786" transform="translate(2.934 0.975)">
                <path id="Path_6559" data-name="Path 6559" d="M126.044,252.969a.386.386,0,0,1-.273-.658l1.557-1.557a.385.385,0,1,1,.545.545l-1.557,1.557A.384.384,0,0,1,126.044,252.969Z" transform="translate(-125.659 -250.642)" fill="#374450"/>
              </g>
            </g>
            <g id="Group_2790" data-name="Group 2790" transform="translate(11.863 4.491)">
              <g id="Group_2788" data-name="Group 2788">
                <path id="Path_6560" data-name="Path 6560" d="M134.718,254.066a.382.382,0,0,1-.272-.113.386.386,0,0,1,0-.545l3.919-3.919a.385.385,0,0,1,.545.545l-3.919,3.919A.385.385,0,0,1,134.718,254.066Z" transform="translate(-134.334 -249.377)" fill="#374450"/>
              </g>
              <g id="Group_2789" data-name="Group 2789" transform="translate(2.934 0.975)">
                <path id="Path_6561" data-name="Path 6561" d="M138.527,252.969a.386.386,0,0,1-.273-.658l1.557-1.557a.385.385,0,0,1,.545.545l-1.557,1.557A.381.381,0,0,1,138.527,252.969Z" transform="translate(-138.142 -250.642)" fill="#374450"/>
              </g>
            </g>
            <g id="Group_2793" data-name="Group 2793" transform="translate(21.479 4.491)">
              <g id="Group_2791" data-name="Group 2791">
                <path id="Path_6562" data-name="Path 6562" d="M147.2,254.066a.386.386,0,0,1-.272-.658l3.919-3.919a.385.385,0,0,1,.545.545l-3.919,3.919A.384.384,0,0,1,147.2,254.066Z" transform="translate(-146.817 -249.377)" fill="#374450"/>
              </g>
              <g id="Group_2792" data-name="Group 2792" transform="translate(2.934 0.975)">
                <path id="Path_6563" data-name="Path 6563" d="M151.01,252.969a.386.386,0,0,1-.272-.658l1.557-1.557a.385.385,0,1,1,.545.545l-1.557,1.557A.385.385,0,0,1,151.01,252.969Z" transform="translate(-150.626 -250.642)" fill="#374450"/>
              </g>
            </g>
          </g>
          <g id="Group_2795" data-name="Group 2795" transform="translate(0 23.386)">
            <path id="Path_6564" data-name="Path 6564" d="M148.665,276.2h-31.1v-2.3h31.1Zm-30.334-.77h29.564v-.755H118.33Z" transform="translate(-117.56 -273.904)" fill="#374450"/>
          </g>
        </g>
        <g id="Group_2797" data-name="Group 2797" transform="translate(0.183 0)">
          <path id="Path_6565" data-name="Path 6565" d="M149.087,194.026a1.533,1.533,0,0,1-.954-.331l-52.41-41.359L43.64,193.507a1.541,1.541,0,0,1-1.911-2.417l53.993-42.681,54.32,42.867a1.54,1.54,0,0,1-.955,2.749Z" transform="translate(-41.144 -148.409)" fill="#374450"/>
        </g>
        <g id="Group_2798" data-name="Group 2798" transform="translate(0.953 0.981)">
          <path id="Path_6566" data-name="Path 6566" d="M149.317,193.548a.772.772,0,0,1-.478-.165L95.953,151.647,43.392,193.2a.771.771,0,0,1-.956-1.209l53.516-42.3,53.843,42.49a.77.77,0,0,1-.478,1.375Z" transform="translate(-42.143 -149.683)" fill="#514070"/>
        </g>
        <g id="Group_2799" data-name="Group 2799" transform="translate(54.4 100.745)">
          <rect id="Rectangle_608" data-name="Rectangle 608" width="41.249" height="5.789" transform="translate(0.385 0.385)" fill="#fff"/>
          <path id="Path_6567" data-name="Path 6567" d="M153.541,285.744h-42.02v-6.56h42.02Zm-41.25-.77h40.479v-5.019H112.291Z" transform="translate(-111.521 -279.184)" fill="#374450"/>
        </g>
        <g id="Group_2800" data-name="Group 2800" transform="translate(11.002 52.049)">
          <path id="Path_6568" data-name="Path 6568" d="M64.5,216.472H99.062v10.464H55.689V216.472H64.5Z" transform="translate(-55.303 -216.087)" fill="#fff"/>
          <path id="Path_6569" data-name="Path 6569" d="M99.333,227.206H55.188V215.972h6.564a.385.385,0,1,1,0,.77H55.958v9.693h42.6v-9.693H64.384a.385.385,0,1,1,0-.77H99.333Z" transform="translate(-55.188 -215.972)" fill="#374450"/>
        </g>
        <g id="Group_2801" data-name="Group 2801" transform="translate(25.429 71.611)">
          <rect id="Rectangle_609" data-name="Rectangle 609" width="18.705" height="34.923" transform="translate(0.386 0.385)" fill="#fff"/>
          <path id="Path_6570" data-name="Path 6570" d="M93.392,277.06H73.915V241.366H93.392Zm-18.706-.77H92.621V242.136H74.685Z" transform="translate(-73.915 -241.366)" fill="#374450"/>
        </g>
        <g id="Group_2802" data-name="Group 2802" transform="translate(27.111 73.292)">
          <rect id="Rectangle_610" data-name="Rectangle 610" width="15.344" height="33.242" transform="translate(0.385 0.385)" fill="#fff"/>
          <path id="Path_6571" data-name="Path 6571" d="M92.212,277.56H76.1V243.547H92.212Zm-15.343-.77H91.441V244.317H76.868Z" transform="translate(-76.098 -243.547)" fill="#374450"/>
        </g>
        <g id="Group_2803" data-name="Group 2803" transform="translate(28.231 74.412)">
          <rect id="Rectangle_611" data-name="Rectangle 611" width="13.103" height="14.38" transform="translate(0.385 0.385)" fill="#fff"/>
          <path id="Path_6572" data-name="Path 6572" d="M91.425,260.152H77.552V245H91.425Zm-13.1-.77H90.654V245.772H78.322Z" transform="translate(-77.552 -245.002)" fill="#374450"/>
        </g>
        <g id="Group_2804" data-name="Group 2804" transform="translate(75.893 9.748)">
          <path id="Path_6573" data-name="Path 6573" d="M142.5,161.833h-2.689a.385.385,0,0,1,0-.77H142.5a.385.385,0,0,1,0,.77Z" transform="translate(-139.421 -161.063)" fill="#374450"/>
        </g>
        <g id="Group_2805" data-name="Group 2805" transform="translate(28.231 91.034)">
          <rect id="Rectangle_612" data-name="Rectangle 612" width="5.991" height="14.38" transform="translate(0.385 0.385)" fill="#fff"/>
          <path id="Path_6574" data-name="Path 6574" d="M84.314,281.728H77.552v-15.15h6.762Zm-5.991-.77h5.221V267.348H78.322Z" transform="translate(-77.552 -266.578)" fill="#374450"/>
        </g>
        <g id="Group_2806" data-name="Group 2806" transform="translate(35.343 91.034)">
          <rect id="Rectangle_613" data-name="Rectangle 613" width="5.991" height="14.38" transform="translate(0.385 0.385)" fill="#fff"/>
          <path id="Path_6575" data-name="Path 6575" d="M93.545,281.728H86.784v-15.15h6.761Zm-5.99-.77h5.22V267.348h-5.22Z" transform="translate(-86.784 -266.578)" fill="#374450"/>
        </g>
        <g id="Group_2807" data-name="Group 2807" transform="translate(36.966 74.412)">
          <path id="Path_6576" data-name="Path 6576" d="M89.276,260.117a.385.385,0,0,1-.385-.385V245.387a.385.385,0,1,1,.77,0v14.345A.385.385,0,0,1,89.276,260.117Z" transform="translate(-88.891 -245.002)" fill="#374450"/>
        </g>
        <g id="Group_2808" data-name="Group 2808" transform="translate(28.202 79.206)">
          <path id="Path_6577" data-name="Path 6577" d="M91.031,251.994H77.9a.385.385,0,1,1,0-.77H91.031a.385.385,0,1,1,0,.77Z" transform="translate(-77.514 -251.224)" fill="#374450"/>
        </g>
        <g id="Group_2809" data-name="Group 2809" transform="translate(28.202 83.999)">
          <path id="Path_6578" data-name="Path 6578" d="M91.031,258.216H77.9a.385.385,0,0,1,0-.77H91.031a.385.385,0,0,1,0,.77Z" transform="translate(-77.514 -257.446)" fill="#374450"/>
        </g>
        <g id="Group_2810" data-name="Group 2810" transform="translate(32.599 74.412)">
          <path id="Path_6579" data-name="Path 6579" d="M83.607,260.117a.385.385,0,0,1-.385-.385V245.387a.385.385,0,1,1,.77,0v14.345A.385.385,0,0,1,83.607,260.117Z" transform="translate(-83.222 -245.002)" fill="#374450"/>
        </g>
        <g id="Group_2811" data-name="Group 2811" transform="translate(0 106.535)">
          <path id="Path_6580" data-name="Path 6580" d="M142.637,287.469H41.291a.385.385,0,1,1,0-.77H142.637a.385.385,0,1,1,0,.77Z" transform="translate(-40.906 -286.699)" fill="#374450"/>
        </g>
        <g id="Group_2812" data-name="Group 2812" transform="translate(32.69 32.683)">
          <rect id="Rectangle_614" data-name="Rectangle 614" width="15.344" height="19.236" transform="translate(0.385 0.385)" fill="#fff"/>
          <path id="Path_6581" data-name="Path 6581" d="M99.454,210.841H83.34V190.834H99.454Zm-15.343-.77H98.683V191.6H84.11Z" transform="translate(-83.34 -190.834)" fill="#374450"/>
        </g>
        <g id="Group_2813" data-name="Group 2813" transform="translate(34.37 34.364)">
          <rect id="Rectangle_615" data-name="Rectangle 615" width="11.982" height="13.342" transform="translate(0.385 0.385)" fill="#fff"/>
          <path id="Path_6582" data-name="Path 6582" d="M98.274,207.129H85.521V193.016H98.274Zm-11.982-.77H97.5V193.786H86.291Z" transform="translate(-85.521 -193.016)" fill="#374450"/>
        </g>
        <g id="Group_2814" data-name="Group 2814" transform="translate(34.37 48.827)">
          <rect id="Rectangle_616" data-name="Rectangle 616" width="11.982" height="3.151" transform="translate(0.385 0.385)" fill="#fff"/>
          <path id="Path_6583" data-name="Path 6583" d="M98.274,215.712H85.521V211.79H98.274Zm-11.982-.77H97.5V212.56H86.291Z" transform="translate(-85.521 -211.79)" fill="#374450"/>
        </g>
      </g>
      <g id="Group_2816" data-name="Group 2816" transform="translate(53 199)">
        <path id="Path_6584" data-name="Path 6584" d="M271.831,143.9h-.017c-.517-.022-1.04-.068-1.555-.136a.377.377,0,0,1,.1-.748c.493.066.993.109,1.489.13a.377.377,0,0,1-.016.754Zm1.528,0a.377.377,0,0,1-.017-.754c.5-.022,1-.067,1.488-.133a.377.377,0,1,1,.1.747c-.513.069-1.036.116-1.554.139Zm-4.553-.4a.4.4,0,0,1-.084-.009c-.5-.115-1.012-.253-1.506-.413a.377.377,0,1,1,.232-.717c.472.152.956.285,1.44.394a.377.377,0,0,1-.083.745Zm7.578-.008a.377.377,0,0,1-.084-.744c.483-.111.967-.245,1.44-.4a.377.377,0,0,1,.234.717c-.494.161-1,.3-1.505.416A.364.364,0,0,1,276.383,143.484Zm-10.483-.931a.381.381,0,0,1-.148-.03c-.479-.2-.952-.432-1.408-.677a.377.377,0,1,1,.357-.664c.436.234.889.452,1.346.647a.377.377,0,0,1-.148.724Zm13.384-.014a.377.377,0,0,1-.148-.724c.456-.2.908-.414,1.345-.65a.377.377,0,0,1,.358.663c-.456.246-.929.475-1.406.679A.37.37,0,0,1,279.285,142.539Zm-16.074-1.431a.375.375,0,0,1-.207-.063c-.432-.285-.858-.593-1.264-.917a.377.377,0,1,1,.47-.589c.389.31.8.605,1.209.877a.377.377,0,0,1-.207.692Zm18.76-.02a.377.377,0,0,1-.208-.691c.412-.273.819-.569,1.207-.88a.377.377,0,1,1,.47.589c-.406.325-.831.634-1.262.92A.377.377,0,0,1,281.97,141.089Zm-21.148-1.882a.377.377,0,0,1-.26-.1c-.375-.357-.738-.736-1.082-1.127a.377.377,0,0,1,.567-.5c.329.375.677.737,1.034,1.079a.377.377,0,0,1-.259.65Zm23.533-.024a.377.377,0,0,1-.261-.649c.358-.342.705-.706,1.033-1.081a.377.377,0,0,1,.568.5c-.341.391-.7.771-1.079,1.129A.376.376,0,0,1,284.355,139.183Zm-25.545-2.271a.377.377,0,0,1-.3-.155c-.305-.418-.6-.856-.864-1.3a.377.377,0,1,1,.646-.389c.256.426.534.845.826,1.245a.377.377,0,0,1-.3.6Zm27.553-.028a.377.377,0,0,1-.3-.6c.292-.4.569-.819.824-1.247a.377.377,0,0,1,.647.387c-.268.446-.557.885-.861,1.3A.379.379,0,0,1,286.363,136.884ZM257.236,134.3a.376.376,0,0,1-.339-.213c-.227-.467-.434-.95-.617-1.434a.377.377,0,1,1,.705-.267c.175.463.373.925.59,1.373a.378.378,0,0,1-.175.5A.387.387,0,0,1,257.236,134.3Zm30.694-.032a.373.373,0,0,1-.164-.038.377.377,0,0,1-.176-.5c.215-.445.412-.907.587-1.373a.377.377,0,1,1,.706.265c-.183.488-.39.971-.615,1.437A.376.376,0,0,1,287.931,134.264Zm-31.773-2.823a.377.377,0,0,1-.363-.277c-.139-.5-.256-1.011-.349-1.522a.377.377,0,0,1,.742-.134c.089.488.2.978.334,1.455a.377.377,0,0,1-.262.464A.365.365,0,0,1,256.158,131.441ZM289,131.406a.382.382,0,0,1-.1-.014.377.377,0,0,1-.263-.464c.131-.478.243-.967.33-1.457a.377.377,0,0,1,.742.134c-.093.511-.209,1.024-.346,1.522A.377.377,0,0,1,289,131.406Zm-33.393-2.967a.377.377,0,0,1-.375-.343c-.047-.516-.072-1.04-.072-1.559a.377.377,0,0,1,.376-.378h0a.377.377,0,0,1,.377.376c0,.5.024,1,.069,1.492a.377.377,0,0,1-.341.41Zm33.935-.037a.254.254,0,0,1-.034,0,.377.377,0,0,1-.342-.409c.044-.493.066-1,.066-1.493a.41.41,0,0,1,.377-.413.347.347,0,0,1,.377.341v.072c0,.519-.023,1.045-.069,1.559A.377.377,0,0,1,289.545,128.4Zm-33.94-3.016h-.033a.377.377,0,0,1-.343-.408c.044-.516.113-1.037.2-1.548a.377.377,0,1,1,.742.132c-.087.489-.152.987-.2,1.481A.376.376,0,0,1,255.6,125.386Zm33.933-.109a.377.377,0,0,1-.375-.341c-.045-.494-.115-.991-.2-1.48a.377.377,0,0,1,.741-.136c.094.511.167,1.031.214,1.547a.376.376,0,0,1-.34.41Zm-33.4-2.9a.375.375,0,0,1-.364-.476c.137-.5.3-1,.479-1.486a.377.377,0,1,1,.706.263c-.173.464-.327.942-.458,1.421A.376.376,0,0,1,256.139,122.381Zm32.844-.1a.377.377,0,0,1-.363-.275c-.133-.476-.29-.953-.467-1.419a.377.377,0,1,1,.7-.268c.185.487.349.986.488,1.484a.377.377,0,0,1-.262.464A.364.364,0,0,1,288.983,122.276ZM257.2,119.52a.378.378,0,0,1-.339-.54c.224-.467.472-.931.738-1.376a.377.377,0,0,1,.647.385c-.254.427-.491.871-.706,1.317A.377.377,0,0,1,257.2,119.52Zm30.695-.1a.375.375,0,0,1-.338-.212c-.218-.446-.458-.888-.714-1.311a.377.377,0,0,1,.644-.39c.268.443.519.9.746,1.371a.376.376,0,0,1-.173.5A.37.37,0,0,1,287.9,119.422ZM258.766,116.9a.377.377,0,0,1-.3-.6c.3-.421.63-.831.971-1.223a.377.377,0,1,1,.569.494c-.326.375-.638.768-.93,1.17A.375.375,0,0,1,258.766,116.9Zm27.556-.086a.379.379,0,0,1-.3-.154c-.292-.4-.608-.791-.937-1.164a.377.377,0,0,1,.566-.5c.344.39.673.8.979,1.216a.377.377,0,0,1-.3.6Zm-25.552-2.217a.376.376,0,0,1-.261-.648c.376-.361.771-.708,1.173-1.031a.377.377,0,1,1,.472.588c-.384.309-.762.641-1.122.987A.377.377,0,0,1,260.771,114.593Zm23.533-.074a.376.376,0,0,1-.26-.1c-.359-.341-.739-.671-1.128-.98a.377.377,0,1,1,.468-.59c.408.323.8.667,1.18,1.024a.376.376,0,0,1-.259.65Zm-21.152-1.837a.377.377,0,0,1-.209-.691c.432-.287.883-.559,1.338-.8a.376.376,0,1,1,.359.662c-.435.237-.865.5-1.28.771A.372.372,0,0,1,263.152,112.682Zm18.759-.06a.37.37,0,0,1-.206-.062c-.416-.273-.849-.53-1.285-.763a.377.377,0,1,1,.356-.665c.456.243.907.512,1.343.8a.377.377,0,0,1-.207.692Zm-16.077-1.4a.377.377,0,0,1-.149-.723c.475-.2.965-.391,1.46-.553a.377.377,0,1,1,.235.716c-.473.155-.943.333-1.4.529A.37.37,0,0,1,265.833,111.226Zm13.384-.043a.376.376,0,0,1-.147-.029c-.456-.194-.927-.369-1.4-.52a.377.377,0,0,1,.23-.718c.5.159.987.342,1.465.544a.377.377,0,0,1-.148.724Zm-10.485-.908a.377.377,0,0,1-.084-.744c.506-.117,1.024-.212,1.537-.282a.377.377,0,1,1,.1.747c-.49.067-.984.158-1.469.269A.364.364,0,0,1,268.733,110.275Zm7.579-.024a.394.394,0,0,1-.083-.009c-.483-.109-.978-.2-1.471-.26a.377.377,0,0,1-.325-.423.373.373,0,0,1,.423-.324c.514.067,1.031.158,1.538.271a.377.377,0,0,1-.082.745Zm-4.555-.391a.377.377,0,0,1-.018-.754c.517-.025,1.043-.026,1.562,0a.376.376,0,0,1,.36.392.369.369,0,0,1-.392.361c-.5-.02-1-.018-1.495,0Z" transform="translate(-255.163 -109.086)" fill="#514070"/>
      </g>
      <g id="Group_2822" data-name="Group 2822" transform="translate(70.036 236.937)">
        <g id="Group_2817" data-name="Group 2817" transform="translate(0)">
          <path id="Path_6585" data-name="Path 6585" d="M278.143,162.57a.377.377,0,0,1-.377-.377v-.754a.377.377,0,1,1,.754,0v.754A.377.377,0,0,1,278.143,162.57Z" transform="translate(-277.766 -161.063)" fill="#514070"/>
        </g>
        <g id="Group_2818" data-name="Group 2818" transform="translate(0 2.265)">
          <path id="Path_6586" data-name="Path 6586" d="M278.143,238.86a.377.377,0,0,1-.377-.377v-1.511a.377.377,0,1,1,.754,0v1.511A.377.377,0,0,1,278.143,238.86Zm0-3.022a.377.377,0,0,1-.377-.377V233.95a.377.377,0,0,1,.754,0v1.511A.377.377,0,0,1,278.143,235.838Zm0-3.022a.377.377,0,0,1-.377-.377v-1.511a.377.377,0,1,1,.754,0v1.511A.377.377,0,0,1,278.143,232.816Zm0-3.022a.377.377,0,0,1-.377-.377v-1.511a.377.377,0,0,1,.754,0v1.511A.377.377,0,0,1,278.143,229.794Zm0-3.022a.377.377,0,0,1-.377-.377v-1.51a.377.377,0,1,1,.754,0v1.51A.377.377,0,0,1,278.143,226.772Zm0-3.022a.377.377,0,0,1-.377-.377v-1.511a.377.377,0,0,1,.754,0v1.511A.377.377,0,0,1,278.143,223.751Zm0-3.022a.377.377,0,0,1-.377-.377v-1.51a.377.377,0,1,1,.754,0v1.51A.377.377,0,0,1,278.143,220.728Zm0-3.022a.377.377,0,0,1-.377-.377v-1.511a.377.377,0,1,1,.754,0v1.511A.377.377,0,0,1,278.143,217.706Zm0-3.022a.377.377,0,0,1-.377-.377V212.8a.377.377,0,0,1,.754,0v1.511A.377.377,0,0,1,278.143,214.685Zm0-3.022a.377.377,0,0,1-.377-.377v-1.511a.377.377,0,1,1,.754,0v1.511A.377.377,0,0,1,278.143,211.662Zm0-3.022a.377.377,0,0,1-.377-.377v-1.511a.377.377,0,0,1,.754,0v1.511A.377.377,0,0,1,278.143,208.641Zm0-3.022a.377.377,0,0,1-.377-.377V203.73a.377.377,0,1,1,.754,0v1.511A.377.377,0,0,1,278.143,205.619Zm0-3.022a.377.377,0,0,1-.377-.377v-1.51a.377.377,0,1,1,.754,0v1.51A.377.377,0,0,1,278.143,202.6Zm0-3.022a.377.377,0,0,1-.377-.377v-1.511a.377.377,0,0,1,.754,0V199.2A.377.377,0,0,1,278.143,199.575Zm0-3.022a.377.377,0,0,1-.377-.377v-1.511a.377.377,0,1,1,.754,0v1.511A.377.377,0,0,1,278.143,196.553Zm0-3.022a.377.377,0,0,1-.377-.377v-1.511a.377.377,0,0,1,.754,0v1.511A.377.377,0,0,1,278.143,193.531Zm0-3.022a.377.377,0,0,1-.377-.377v-1.511a.377.377,0,0,1,.754,0v1.511A.377.377,0,0,1,278.143,190.509Zm0-3.022a.377.377,0,0,1-.377-.377V185.6a.377.377,0,1,1,.754,0v1.51A.377.377,0,0,1,278.143,187.487Zm0-3.022a.377.377,0,0,1-.377-.377v-1.511a.377.377,0,0,1,.754,0v1.511A.377.377,0,0,1,278.143,184.465Zm0-3.022a.377.377,0,0,1-.377-.377v-1.511a.377.377,0,1,1,.754,0v1.511A.377.377,0,0,1,278.143,181.443Zm0-3.022a.377.377,0,0,1-.377-.377v-1.511a.377.377,0,0,1,.754,0v1.511A.377.377,0,0,1,278.143,178.421Zm0-3.022a.377.377,0,0,1-.377-.377v-1.51a.377.377,0,1,1,.754,0v1.51A.377.377,0,0,1,278.143,175.4Zm0-3.022a.377.377,0,0,1-.377-.377v-1.511a.377.377,0,0,1,.754,0V172A.377.377,0,0,1,278.143,172.377Zm0-3.022a.377.377,0,0,1-.377-.377v-1.51a.377.377,0,0,1,.754,0v1.51A.377.377,0,0,1,278.143,169.355Zm0-3.022a.377.377,0,0,1-.377-.377v-1.511a.377.377,0,1,1,.754,0v1.511A.377.377,0,0,1,278.143,166.333Z" transform="translate(-277.766 -164.068)" fill="#514070"/>
        </g>
        <g id="Group_2819" data-name="Group 2819" transform="translate(0 77.814)">
          <path id="Path_6587" data-name="Path 6587" d="M278.9,265.812h-1.131v-1.131a.377.377,0,1,1,.754,0v.377h.377a.377.377,0,1,1,0,.754Z" transform="translate(-277.766 -264.305)" fill="#514070"/>
        </g>
        <g id="Group_2820" data-name="Group 2820" transform="translate(2.275 78.568)">
          <path id="Path_6588" data-name="Path 6588" d="M450.471,266.059h-6.228c-.852,0-1.543-.169-1.543-.377s.691-.377,1.543-.377h6.228c.852,0,1.543.168,1.543.377S451.323,266.059,450.471,266.059Zm-12.456,0h-6.228c-.852,0-1.543-.169-1.543-.377s.691-.377,1.543-.377h6.228c.852,0,1.543.168,1.543.377S438.867,266.059,438.015,266.059Zm-12.456,0h-6.225c-.855,0-1.543-.169-1.543-.377s.688-.377,1.543-.377h6.225c.855,0,1.543.168,1.543.377S426.414,266.059,425.559,266.059Zm-12.453,0h-6.228c-.852,0-1.543-.169-1.543-.377s.691-.377,1.543-.377h6.228c.852,0,1.543.168,1.543.377S413.958,266.059,413.106,266.059Zm-12.456,0h-6.228c-.852,0-1.543-.169-1.543-.377s.691-.377,1.543-.377h6.228c.852,0,1.543.168,1.543.377S401.5,266.059,400.65,266.059Zm-12.456,0h-6.228c-.852,0-1.543-.169-1.543-.377s.691-.377,1.543-.377h6.228c.855,0,1.543.168,1.543.377S389.049,266.059,388.194,266.059Zm-12.453,0h-6.228c-.855,0-1.543-.169-1.543-.377s.688-.377,1.543-.377h6.228c.852,0,1.543.168,1.543.377S376.593,266.059,375.741,266.059Zm-12.456,0h-6.228c-.852,0-1.543-.169-1.543-.377s.691-.377,1.543-.377h6.228c.852,0,1.543.168,1.543.377S364.137,266.059,363.285,266.059Zm-12.456,0H344.6c-.852,0-1.543-.169-1.543-.377s.691-.377,1.543-.377h6.228c.852,0,1.543.168,1.543.377S351.681,266.059,350.829,266.059Zm-12.456,0h-6.225c-.855,0-1.543-.169-1.543-.377s.688-.377,1.543-.377h6.225c.855,0,1.543.168,1.543.377S339.228,266.059,338.373,266.059Zm-12.453,0h-6.231c-.852,0-1.543-.169-1.543-.377s.691-.377,1.543-.377h6.231c.852,0,1.543.168,1.543.377S326.772,266.059,325.92,266.059Zm-12.456,0h-6.228c-.855,0-1.543-.169-1.543-.377s.688-.377,1.543-.377h6.228c.852,0,1.543.168,1.543.377S314.316,266.059,313.464,266.059Zm-12.456,0H294.78c-.852,0-1.543-.169-1.543-.377s.691-.377,1.543-.377h6.228c.855,0,1.543.168,1.543.377S301.863,266.059,301.008,266.059Zm-12.453,0h-6.228c-.855,0-1.543-.169-1.543-.377s.688-.377,1.543-.377h6.228c.852,0,1.543.168,1.543.377S289.407,266.059,288.555,266.059Z" transform="translate(-280.784 -265.305)" fill="#514070"/>
        </g>
        <g id="Group_2821" data-name="Group 2821" transform="translate(174.272 78.568)">
          <path id="Path_6589" data-name="Path 6589" d="M338.415,266.059h-.754a.377.377,0,1,1,0-.754h.754a.377.377,0,1,1,0,.754Z" transform="translate(-337.284 -265.305)" fill="#514070"/>
        </g>
      </g>
    </g>
    <g id="Group_2823" data-name="Group 2823" transform="translate(64.349 202.88)">
      <path id="Path_6590" data-name="Path 6590" d="M281.353,128.149h-3a.74.74,0,0,1-.729-.866l2.03-11.68a.74.74,0,0,0-1.357-.519l-7.464,11.933a.74.74,0,0,0,.627,1.132h3a.74.74,0,0,1,.729.867L273.16,140.7a.74.74,0,0,0,1.356.519l7.464-11.933A.74.74,0,0,0,281.353,128.149Z" transform="translate(-270.343 -114.357)" fill="#514070"/>
      <path id="Path_6591" data-name="Path 6591" d="M273.778,141.819h0a1.16,1.16,0,0,1-.877-.406,1.091,1.091,0,0,1-.235-.9l2.03-11.68a.363.363,0,0,0-.358-.424h-3a1.118,1.118,0,0,1-.947-1.709l7.464-11.933a1.086,1.086,0,0,1,.935-.528,1.158,1.158,0,0,1,.877.406,1.089,1.089,0,0,1,.235.9l-2.029,11.68a.364.364,0,0,0,.357.426h3a1.116,1.116,0,0,1,.947,1.709l-7.464,11.933A1.084,1.084,0,0,1,273.778,141.819Zm5.012-26.831a.335.335,0,0,0-.3.173l-7.464,11.933a.364.364,0,0,0,.308.556h3a1.117,1.117,0,0,1,1.1,1.308l-2.029,11.679a.339.339,0,0,0,.069.29.4.4,0,0,0,.3.138h0a.335.335,0,0,0,.3-.173l7.464-11.933a.363.363,0,0,0-.308-.555h-3a1.117,1.117,0,0,1-1.1-1.308l2.03-11.679a.343.343,0,0,0-.069-.291A.4.4,0,0,0,278.79,114.988Z" transform="translate(-270.22 -114.234)" fill="#514070"/>
    </g>
  </g>
</svg>
