<svg xmlns="http://www.w3.org/2000/svg" xmlns:xlink="http://www.w3.org/1999/xlink" width="340.2" height="245.831" viewBox="0 0 340.2 245.831">
  <defs>
    <clipPath id="clip-path">
      <rect id="Rectangle_635" data-name="Rectangle 635" width="112" height="182" transform="translate(215 283)" fill="#fff"/>
    </clipPath>
    <clipPath id="clip-path-2">
      <rect id="Rectangle_375" data-name="Rectangle 375" width="133.486" height="77.281" fill="none"/>
    </clipPath>
    <clipPath id="clip-path-3">
      <path id="Path_828" data-name="Path 828" d="M256.683,164.568c0,1.055-1.66,2.039-1.741,3.075s1.4,2.281,1.239,3.309-1.958,1.75-2.2,2.763,1.027,2.471.7,3.463-2.209,1.418-2.609,2.383.63,2.6.155,3.53-2.4,1.06-2.945,1.954.229,2.661-.38,3.513-2.532.687-3.2,1.493-.162,2.664-.89,3.419-2.6.315-3.385,1.017-.538,2.614-1.366,3.26-2.622-.053-3.493.533-.893,2.513-1.8,3.04-2.59-.411-3.534.054-1.223,2.368-2.2,2.768-2.512-.755-3.509-.42-1.526,2.185-2.544,2.453-2.39-1.08-3.424-.878-1.8,1.966-2.842,2.1-2.229-1.381-3.281-1.313-2.033,1.719-3.089,1.719-2.052-1.653-3.089-1.719c-1.053-.067-2.25,1.445-3.281,1.313s-1.822-1.9-2.843-2.1-2.417,1.144-3.423.878-1.556-2.121-2.545-2.453-2.545.816-3.509.42-1.261-2.309-2.2-2.769-2.631.47-3.534-.053-.938-2.456-1.8-3.04-2.671.108-3.494-.534-.59-2.561-1.366-3.26-2.66-.264-3.384-1.017-.221-2.617-.891-3.419-2.594-.644-3.2-1.494.164-2.618-.381-3.513-2.469-1.02-2.944-1.954.558-2.562.156-3.53-2.284-1.385-2.609-2.383.948-2.441.7-3.462-2.039-1.723-2.2-2.763,1.322-2.258,1.239-3.309S164,165.623,164,164.568s1.66-2.039,1.741-3.076-1.4-2.281-1.239-3.309,1.959-1.749,2.2-2.763-1.026-2.471-.7-3.463,2.209-1.418,2.609-2.382-.63-2.6-.155-3.53,2.4-1.059,2.945-1.954-.229-2.661.381-3.513,2.531-.687,3.2-1.492.162-2.665.891-3.42,2.6-.315,3.384-1.017.538-2.613,1.366-3.259,2.622.053,3.494-.534.893-2.513,1.8-3.04,2.591.412,3.534-.053,1.223-2.369,2.2-2.769,2.511.756,3.508.42,1.526-2.184,2.545-2.453,2.389,1.08,3.423.879,1.8-1.966,2.842-2.1,2.229,1.381,3.281,1.314,2.034-1.719,3.089-1.719,2.051,1.654,3.089,1.719,2.25-1.446,3.281-1.314,1.821,1.9,2.842,2.1,2.417-1.145,3.423-.879,1.557,2.121,2.545,2.453,2.545-.816,3.509-.42,1.261,2.309,2.2,2.769,2.631-.469,3.534.053.937,2.456,1.8,3.04,2.671-.108,3.494.534.59,2.561,1.366,3.26,2.66.265,3.385,1.017.221,2.617.89,3.42,2.594.643,3.2,1.493-.163,2.619.381,3.513,2.47,1.021,2.945,1.954-.558,2.562-.156,3.53,2.284,1.385,2.609,2.382-.949,2.441-.7,3.463,2.038,1.723,2.2,2.762-1.322,2.258-1.239,3.309S256.683,163.512,256.683,164.568Z" transform="translate(-164 -121.333)" fill="#263238" stroke="#263238" stroke-linecap="round" stroke-linejoin="round" stroke-width="1"/>
    </clipPath>
    <clipPath id="clip-path-4">
      <path id="Path_834" data-name="Path 834" d="M199.788,240.738s-12.7,3.513-21.887,4.864-14.862,1.351-16.753,5.945-17.294,56.474-20.537,62.689-5.134,20.266.541,20.536,22.7-35.4,22.7-35.4l5.134,9.728s-15.942,49.989-15.672,52.151,7.3,6.485,20.536,7.566,14.592.811,23.779,3.243,21.617-.811,27.562-4.053,12.7-4.323,15.4-5.944,2.7-1.891,2.7-5.134-12.7-49.99-12.7-49.99l7.567-20s17.293,35.668,18.1,38.911,5.944,7.3,10.808,6.215,9.728-4.594,8.377-12.7S251.4,254.79,249.777,249.926s.27-9.458-6.485-11.079-39.991.27-39.991.27Z" transform="translate(-137.518 -238.19)" fill="#c6ff00" stroke="#263238" stroke-linecap="round" stroke-linejoin="round" stroke-width="1"/>
    </clipPath>
    <clipPath id="clip-path-5">
      <path id="Path_841" data-name="Path 841" d="M145.822,327.038s-3.243,20.536-6.485,23.238-8.376,1.892-10.538-8.106,0-12.43,3.513-17.293S144.47,316.229,145.822,327.038Z" transform="translate(-127.934 -320.064)" fill="#43b17e" stroke="#263238" stroke-linecap="round" stroke-linejoin="round" stroke-width="1"/>
    </clipPath>
    <clipPath id="clip-path-6">
      <path id="Path_845" data-name="Path 845" d="M203.635,215.513s3.243,11.349,2.972,18.645-2.161,18.375-2.972,23.509,2.972,1.621,11.619-9.457,11.079-14.322,11.619-18.1.541-14.051.541-14.051a11.443,11.443,0,0,1-11.079,2.7c-6.755-1.891-11.078-6.755-12.16-6.755S203.635,215.513,203.635,215.513Z" transform="translate(-203.5 -212)" fill="#fff" stroke="#263238" stroke-linecap="round" stroke-linejoin="round" stroke-width="1"/>
    </clipPath>
    <clipPath id="clip-path-7">
      <path id="Path_850" data-name="Path 850" d="M242.936,193.776s3.029-3.535,5.049-.505-4.04,13.13-5.807,13.13-1.01-7.07-1.01-8.838S242.936,193.776,242.936,193.776Z" transform="translate(-241.007 -192.044)" fill="#fff" stroke="#263238" stroke-linecap="round" stroke-linejoin="round" stroke-width="1"/>
    </clipPath>
    <clipPath id="clip-path-8">
      <path id="Path_854" data-name="Path 854" d="M226.892,160.213c-.315.769-.536,1.689-1.123,2.03-.9.523-2.59-.412-3.534.053s-1.223,2.369-2.2,2.768-2.512-.755-3.509-.42-1.526,2.185-2.544,2.453-2.39-1.08-3.424-.878-1.8,1.966-2.842,2.1-2.229-1.381-3.281-1.313c-.908.058-1.784,1.33-2.7,1.648a40.643,40.643,0,0,0-1.976,13.288s-.252,16.665,1.515,21.21,11.11,12.878,14.393,13.383a6.334,6.334,0,0,0,6.312-2.02c1.514-1.515,11.362-9.595,12.372-12.878s4.8-24.492,3.535-31.562C237.12,165.731,232.437,162.154,226.892,160.213Z" transform="translate(-199.756 -160.213)" fill="#fff" stroke="#263238" stroke-linecap="round" stroke-linejoin="round" stroke-width="1"/>
    </clipPath>
    <clipPath id="clip-path-9">
      <path id="Path_866" data-name="Path 866" d="M257.319,352.777S253.266,344.4,253,336.834s2.973-11.619,6.485-7.836S260.292,348.993,257.319,352.777Z" transform="translate(-252.981 -327.56)" fill="#c6ff00" stroke="#263238" stroke-linecap="round" stroke-linejoin="round" stroke-width="1"/>
    </clipPath>
    <clipPath id="clip-path-10">
      <path id="Path_870" data-name="Path 870" d="M275.417,320.381s-18.1,0-28.1-3.782-18.915-9.188-23.509-13.511-6.215-5.4-11.619-5.944-9.458-3.513-9.458-1.621,1.621,3.243,3.243,4.053,7.566,3.513,7.566,3.513.541,1.351-5.134,2.432a78.265,78.265,0,0,0-16.483,5.134c-4.864,2.162-6.485,3.783-4.864,4.324s6.755-1.351,7.836-1.351,7.026-.811,7.026-.811-11.079,4.864-12.7,6.215-6.214,3.243-4.323,4.053,9.728-.541,9.728-.541-8.106,2.432-4.864,3.513,10-.54,10-.54,7.836,1.081,10,0,14.862-6.485,14.862-6.485,19.455,16.753,36.209,20.806,16.483,0,16.483,0" transform="translate(-184.446 -294.899)" fill="#fff" stroke="#263238" stroke-linecap="round" stroke-linejoin="round" stroke-width="1"/>
    </clipPath>
    <clipPath id="clip-path-11">
      <path id="Path_874" data-name="Path 874" d="M298.325,340.582c-1.081,6.755-4.053,11.349-16.484,11.079s-23.509,0-23.509,0a76.225,76.225,0,0,0,2.162-11.89c.811-7.3.811-18.1.811-18.1s17.023,3.782,30.8,2.432" transform="translate(-258.333 -321.667)" fill="#43b17e" stroke="#263238" stroke-linecap="round" stroke-linejoin="round" stroke-width="1"/>
    </clipPath>
    <clipPath id="clip-path-12">
      <path id="Path_878" data-name="Path 878" d="M147.329,280.839s-1.458,4.5-10.268,21.077c-7.427,13.972-9.728,20-9.728,25.13s4.594,11.079,11.349,6.755,8.937-9.509,10.018-17.075,6.914-32.475,6.914-32.475S153.814,278.137,147.329,280.839Z" transform="translate(-127.333 -280.15)" fill="#fff" stroke="#263238" stroke-linecap="round" stroke-linejoin="round" stroke-width="1"/>
    </clipPath>
    <clipPath id="clip-path-13">
      <path id="Path_886" data-name="Path 886" d="M165.151,292.85h0a11.484,11.484,0,0,1-11.484-11.484v-17.7h22.968v17.7A11.485,11.485,0,0,1,165.151,292.85Z" transform="translate(-153.667 -263.667)" fill="#fff" stroke="#263238" stroke-linecap="round" stroke-linejoin="round" stroke-width="1"/>
    </clipPath>
    <clipPath id="clip-path-14">
      <path id="Path_900" data-name="Path 900" d="M403.625,373.222H324.939V235.236h18.65l2.1,1.741a4.085,4.085,0,0,0,2.609.941H381.2a4.083,4.083,0,0,0,2.7-1.017l1.9-1.666h17.829Z" transform="translate(-324.939 -235.236)" fill="#263238" stroke="#263238" stroke-linecap="round" stroke-linejoin="round" stroke-width="1"/>
    </clipPath>
  </defs>
  <g id="Group_2970" data-name="Group 2970" transform="translate(-17.5 -282.5)">
    <g id="Mask_Group_9" data-name="Mask Group 9" clip-path="url(#clip-path)">
      <path id="Path_824" data-name="Path 824" d="M289.4,123.432V303.585H401.77V123.432Zm58.629,4.367h49.633v39.79H348.033Zm0,44.157h49.633v39.369H348.033Zm0,43.736h49.633V255.9H348.033Zm-4.1,83.525H293.507V260.269H343.93Zm0-43.316H293.507v-40.21H343.93Zm0-44.576H293.507V171.956H343.93Zm0-43.737H293.507V127.8H343.93Zm4.1,131.629V260.269h49.633v38.948Z" transform="translate(-75.171 161.27)" fill="#b2b2b2"/>
    </g>
    <g id="Group_1655" data-name="Group 1655" transform="translate(74.021 314.075)">
      <rect id="Rectangle_360" data-name="Rectangle 360" width="48.748" height="65.975" transform="translate(0)" fill="#b2b2b2"/>
      <rect id="Rectangle_361" data-name="Rectangle 361" width="39.54" height="53.513" transform="translate(4.604 6.231)" fill="#fff"/>
    </g>
    <g id="Group_1656" data-name="Group 1656" transform="translate(45.341 387.663)">
      <rect id="Rectangle_362" data-name="Rectangle 362" width="38.211" height="51.714" fill="#b2b2b2"/>
      <rect id="Rectangle_363" data-name="Rectangle 363" width="30.993" height="41.946" transform="translate(3.609 4.884)" fill="#fff"/>
    </g>
    <g id="Group_1664" data-name="Group 1664" transform="translate(23.404 438.124)">
      <g id="Group_1663" data-name="Group 1663" clip-path="url(#clip-path-2)">
        <g id="Group_1662" data-name="Group 1662" transform="translate(4.101 8.106)">
          <path id="Rectangle_364" data-name="Rectangle 364" d="M0,0H60.886a0,0,0,0,1,0,0V41.242A19.644,19.644,0,0,1,41.242,60.886h-21.6A19.644,19.644,0,0,1,0,41.242V0A0,0,0,0,1,0,0Z" transform="translate(112.764 60.886) rotate(180)" fill="#fff" stroke="#263238" stroke-miterlimit="10" stroke-width="1"/>
          <g id="Group_1657" data-name="Group 1657" transform="translate(0 34.571)">
            <path id="Rectangle_365" data-name="Rectangle 365" d="M0,0H42.827a0,0,0,0,1,0,0V47.7A20.414,20.414,0,0,1,22.412,68.11H0a0,0,0,0,1,0,0V0A0,0,0,0,1,0,0Z" transform="translate(42.827 68.11) rotate(180)" fill="#fff"/>
            <path id="Rectangle_366" data-name="Rectangle 366" d="M0,0H42.827a0,0,0,0,1,0,0V47.7A20.414,20.414,0,0,1,22.412,68.11H0a0,0,0,0,1,0,0V0A0,0,0,0,1,0,0Z" transform="translate(42.827 68.11) rotate(180)" fill="none" stroke="#263238" stroke-miterlimit="10" stroke-width="1"/>
          </g>
          <path id="Rectangle_367" data-name="Rectangle 367" d="M0,0H42.827a0,0,0,0,1,0,0V47.7A20.414,20.414,0,0,1,22.413,68.11H0a0,0,0,0,1,0,0V0A0,0,0,0,1,0,0Z" transform="translate(54.724 102.681) rotate(180)" fill="#fff" stroke="#263238" stroke-miterlimit="10" stroke-width="1"/>
          <g id="Group_1658" data-name="Group 1658" transform="translate(42.59)">
            <path id="Rectangle_368" data-name="Rectangle 368" d="M0,0H60.886a0,0,0,0,1,0,0V41.242A19.644,19.644,0,0,1,41.242,60.886h-21.6A19.644,19.644,0,0,1,0,41.242V0A0,0,0,0,1,0,0Z" transform="translate(60.886 60.886) rotate(180)" fill="#fff"/>
            <path id="Rectangle_369" data-name="Rectangle 369" d="M0,0H60.886a0,0,0,0,1,0,0V41.242A19.644,19.644,0,0,1,41.242,60.886h-21.6A19.644,19.644,0,0,1,0,41.242V0A0,0,0,0,1,0,0Z" transform="translate(60.886 60.886) rotate(180)" fill="none" stroke="#263238" stroke-miterlimit="10" stroke-width="1"/>
          </g>
          <g id="Group_1660" data-name="Group 1660" transform="translate(15.322 59.338)">
            <g id="Group_1659" data-name="Group 1659">
              <path id="Rectangle_370" data-name="Rectangle 370" d="M0,0H81.526a0,0,0,0,1,0,0V36.246a7.1,7.1,0,0,1-7.1,7.1H0a0,0,0,0,1,0,0V0A0,0,0,0,1,0,0Z" transform="translate(81.526 43.343) rotate(180)" fill="#fff"/>
              <path id="Rectangle_371" data-name="Rectangle 371" d="M0,0H81.526a0,0,0,0,1,0,0V36.246a7.1,7.1,0,0,1-7.1,7.1H0a0,0,0,0,1,0,0V0A0,0,0,0,1,0,0Z" transform="translate(81.526 43.343) rotate(180)" fill="none" stroke="#263238" stroke-miterlimit="10" stroke-width="1"/>
            </g>
            <line id="Line_27" data-name="Line 27" x2="41.331" transform="translate(1.204 14.956)" fill="#fff" stroke="#263238" stroke-miterlimit="10" stroke-width="1"/>
          </g>
          <g id="Group_1661" data-name="Group 1661" transform="translate(58.04 34.571)">
            <path id="Rectangle_372" data-name="Rectangle 372" d="M0,0H42.827a0,0,0,0,1,0,0V47.7A20.414,20.414,0,0,1,22.412,68.11H0a0,0,0,0,1,0,0V0A0,0,0,0,1,0,0Z" transform="translate(42.827 68.11) rotate(180)" fill="#fff"/>
            <path id="Rectangle_373" data-name="Rectangle 373" d="M0,0H42.827a0,0,0,0,1,0,0V47.7A20.414,20.414,0,0,1,22.412,68.11H0a0,0,0,0,1,0,0V0A0,0,0,0,1,0,0Z" transform="translate(42.827 68.11) rotate(180)" fill="none" stroke="#263238" stroke-miterlimit="10" stroke-width="1"/>
          </g>
          <path id="Rectangle_374" data-name="Rectangle 374" d="M0,0H42.827a0,0,0,0,1,0,0V47.7A20.414,20.414,0,0,1,22.412,68.11H0a0,0,0,0,1,0,0V0A0,0,0,0,1,0,0Z" transform="translate(112.764 102.681) rotate(180)" fill="#fff" stroke="#263238" stroke-miterlimit="10" stroke-width="1"/>
        </g>
      </g>
    </g>
    <g id="Group_1696" data-name="Group 1696" transform="translate(82.851 283)">
      <path id="Path_825" data-name="Path 825" d="M244.964,403.976,243.1,386.64H159.631l-4.474,17.335Z" transform="translate(-132.602 -171.571)" fill="#263238" stroke="#263238" stroke-linecap="round" stroke-linejoin="round" stroke-width="1"/>
      <g id="Group_1666" data-name="Group 1666" transform="translate(29.724 0)">
        <path id="Path_826" data-name="Path 826" d="M256.683,164.568c0,1.055-1.66,2.039-1.741,3.075s1.4,2.281,1.239,3.309-1.958,1.75-2.2,2.763,1.027,2.471.7,3.463-2.209,1.418-2.609,2.383.63,2.6.155,3.53-2.4,1.06-2.945,1.954.229,2.661-.38,3.513-2.532.687-3.2,1.493-.162,2.664-.89,3.419-2.6.315-3.385,1.017-.538,2.614-1.366,3.26-2.622-.053-3.493.533-.893,2.513-1.8,3.04-2.59-.411-3.534.054-1.223,2.368-2.2,2.768-2.512-.755-3.509-.42-1.526,2.185-2.544,2.453-2.39-1.08-3.424-.878-1.8,1.966-2.842,2.1-2.229-1.381-3.281-1.313-2.033,1.719-3.089,1.719-2.052-1.653-3.089-1.719c-1.053-.067-2.25,1.445-3.281,1.313s-1.822-1.9-2.843-2.1-2.417,1.144-3.423.878-1.556-2.121-2.545-2.453-2.545.816-3.509.42-1.261-2.309-2.2-2.769-2.631.47-3.534-.053-.938-2.456-1.8-3.04-2.671.108-3.494-.534-.59-2.561-1.366-3.26-2.66-.264-3.384-1.017-.221-2.617-.891-3.419-2.594-.644-3.2-1.494.164-2.618-.381-3.513-2.469-1.02-2.944-1.954.558-2.562.156-3.53-2.284-1.385-2.609-2.383.948-2.441.7-3.462-2.039-1.723-2.2-2.763,1.322-2.258,1.239-3.309S164,165.623,164,164.568s1.66-2.039,1.741-3.076-1.4-2.281-1.239-3.309,1.959-1.749,2.2-2.763-1.026-2.471-.7-3.463,2.209-1.418,2.609-2.382-.63-2.6-.155-3.53,2.4-1.059,2.945-1.954-.229-2.661.381-3.513,2.531-.687,3.2-1.492.162-2.665.891-3.42,2.6-.315,3.384-1.017.538-2.613,1.366-3.259,2.622.053,3.494-.534.893-2.513,1.8-3.04,2.591.412,3.534-.053,1.223-2.369,2.2-2.769,2.511.756,3.508.42,1.526-2.184,2.545-2.453,2.389,1.08,3.423.879,1.8-1.966,2.842-2.1,2.229,1.381,3.281,1.314,2.034-1.719,3.089-1.719,2.051,1.654,3.089,1.719,2.25-1.446,3.281-1.314,1.821,1.9,2.842,2.1,2.417-1.145,3.423-.879,1.557,2.121,2.545,2.453,2.545-.816,3.509-.42,1.261,2.309,2.2,2.769,2.631-.469,3.534.053.937,2.456,1.8,3.04,2.671-.108,3.494.534.59,2.561,1.366,3.26,2.66.265,3.385,1.017.221,2.617.89,3.42,2.594.643,3.2,1.493-.163,2.619.381,3.513,2.47,1.021,2.945,1.954-.558,2.562-.156,3.53,2.284,1.385,2.609,2.382-.949,2.441-.7,3.463,2.038,1.723,2.2,2.762-1.322,2.258-1.239,3.309S256.683,163.512,256.683,164.568Z" transform="translate(-164 -121.333)" fill="#263238"/>
        <g id="Group_1665" data-name="Group 1665" clip-path="url(#clip-path-3)">
          <path id="Path_827" data-name="Path 827" d="M256.683,164.568c0-1.056-1.66-2.039-1.741-3.076s1.4-2.281,1.239-3.309-1.958-1.749-2.2-2.762,1.026-2.471.7-3.463-2.209-1.418-2.609-2.382.63-2.6.156-3.53-2.4-1.059-2.945-1.954.229-2.661-.381-3.513-2.531-.688-3.2-1.493-.162-2.665-.89-3.42-2.6-.315-3.385-1.017-.538-2.614-1.366-3.26-2.622.053-3.494-.534-.893-2.513-1.8-3.04-2.591.411-3.534-.053-1.223-2.369-2.2-2.769-2.511.756-3.509.421-1.526-2.185-2.545-2.454-2.389,1.08-3.423.879-1.8-1.967-2.842-2.1-2.229,1.381-3.281,1.314-2.033-1.719-3.089-1.719-2.052,1.654-3.089,1.719-2.25-1.446-3.281-1.314-1.821,1.9-2.842,2.1-2.417-1.144-3.423-.879-1.557,2.121-2.545,2.453-2.545-.816-3.508-.42-1.261,2.309-2.2,2.769-2.631-.47-3.534.053-.937,2.456-1.8,3.04-2.671-.108-3.494.534-.59,2.561-1.366,3.259-2.66.265-3.384,1.017-.222,2.617-.891,3.42-2.594.643-3.2,1.492.163,2.619-.381,3.513-2.47,1.02-2.945,1.954.557,2.562.155,3.53-2.284,1.385-2.609,2.382.949,2.442.7,3.463-2.039,1.724-2.2,2.763,1.322,2.258,1.239,3.309S164,163.512,164,164.568s1.66,2.039,1.741,3.075-1.4,2.281-1.239,3.309,1.958,1.749,2.2,2.763-1.027,2.471-.7,3.462,2.208,1.418,2.609,2.383-.631,2.6-.156,3.53a2.1,2.1,0,0,0,1.055.818h0c-.239-.884-.893-1.884-.65-2.628.326-1,2.209-1.418,2.609-2.382s-.63-2.6-.155-3.53,2.4-1.059,2.945-1.954-.229-2.661.381-3.513,2.531-.687,3.2-1.492.162-2.665.891-3.42,2.6-.315,3.384-1.017.538-2.613,1.366-3.259,2.622.054,3.494-.534.893-2.513,1.8-3.04,2.591.412,3.534-.053,1.223-2.369,2.2-2.769,2.511.756,3.508.421,1.526-2.185,2.545-2.454,2.389,1.08,3.423.879,1.8-1.966,2.842-2.1,2.229,1.381,3.281,1.314,2.034-1.719,3.089-1.719,2.051,1.654,3.089,1.719,2.25-1.446,3.281-1.314,1.821,1.9,2.842,2.1,2.417-1.144,3.423-.879,1.557,2.121,2.545,2.454,2.545-.817,3.509-.42,1.261,2.308,2.2,2.768,2.631-.469,3.534.054.937,2.456,1.8,3.04,2.671-.108,3.494.534.59,2.561,1.366,3.26,2.66.265,3.385,1.017.221,2.617.89,3.42,2.594.643,3.2,1.493-.163,2.619.381,3.513c.332.545,1.175.8,1.892,1.136.036.135.084.273.135.413a2.245,2.245,0,0,1-.188-1.248c.245-1.013,2.039-1.723,2.2-2.763s-1.322-2.258-1.239-3.309S256.683,165.623,256.683,164.568Z" transform="translate(-164 -121.333)" fill="#fff" opacity="0.1"/>
        </g>
        <path id="Path_829" data-name="Path 829" d="M256.683,164.568c0,1.055-1.66,2.039-1.741,3.075s1.4,2.281,1.239,3.309-1.958,1.75-2.2,2.763,1.027,2.471.7,3.463-2.209,1.418-2.609,2.383.63,2.6.155,3.53-2.4,1.06-2.945,1.954.229,2.661-.38,3.513-2.532.687-3.2,1.493-.162,2.664-.89,3.419-2.6.315-3.385,1.017-.538,2.614-1.366,3.26-2.622-.053-3.493.533-.893,2.513-1.8,3.04-2.59-.411-3.534.054-1.223,2.368-2.2,2.768-2.512-.755-3.509-.42-1.526,2.185-2.544,2.453-2.39-1.08-3.424-.878-1.8,1.966-2.842,2.1-2.229-1.381-3.281-1.313-2.033,1.719-3.089,1.719-2.052-1.653-3.089-1.719c-1.053-.067-2.25,1.445-3.281,1.313s-1.822-1.9-2.843-2.1-2.417,1.144-3.423.878-1.556-2.121-2.545-2.453-2.545.816-3.509.42-1.261-2.309-2.2-2.769-2.631.47-3.534-.053-.938-2.456-1.8-3.04-2.671.108-3.494-.534-.59-2.561-1.366-3.26-2.66-.264-3.384-1.017-.221-2.617-.891-3.419-2.594-.644-3.2-1.494.164-2.618-.381-3.513-2.469-1.02-2.944-1.954.558-2.562.156-3.53-2.284-1.385-2.609-2.383.948-2.441.7-3.462-2.039-1.723-2.2-2.763,1.322-2.258,1.239-3.309S164,165.623,164,164.568s1.66-2.039,1.741-3.076-1.4-2.281-1.239-3.309,1.959-1.749,2.2-2.763-1.026-2.471-.7-3.463,2.209-1.418,2.609-2.382-.63-2.6-.155-3.53,2.4-1.059,2.945-1.954-.229-2.661.381-3.513,2.531-.687,3.2-1.492.162-2.665.891-3.42,2.6-.315,3.384-1.017.538-2.613,1.366-3.259,2.622.053,3.494-.534.893-2.513,1.8-3.04,2.591.412,3.534-.053,1.223-2.369,2.2-2.769,2.511.756,3.508.42,1.526-2.184,2.545-2.453,2.389,1.08,3.423.879,1.8-1.966,2.842-2.1,2.229,1.381,3.281,1.314,2.034-1.719,3.089-1.719,2.051,1.654,3.089,1.719,2.25-1.446,3.281-1.314,1.821,1.9,2.842,2.1,2.417-1.145,3.423-.879,1.557,2.121,2.545,2.453,2.545-.816,3.509-.42,1.261,2.309,2.2,2.769,2.631-.469,3.534.053.937,2.456,1.8,3.04,2.671-.108,3.494.534.59,2.561,1.366,3.26,2.66.265,3.385,1.017.221,2.617.89,3.42,2.594.643,3.2,1.493-.163,2.619.381,3.513,2.47,1.021,2.945,1.954-.558,2.562-.156,3.53,2.284,1.385,2.609,2.382-.949,2.441-.7,3.463,2.038,1.723,2.2,2.762-1.322,2.258-1.239,3.309S256.683,163.512,256.683,164.568Z" transform="translate(-164 -121.333)" fill="none" stroke="#263238" stroke-linecap="round" stroke-linejoin="round" stroke-width="1"/>
      </g>
      <g id="Group_1669" data-name="Group 1669" transform="translate(8.257 94.729)">
        <g id="Group_1668" data-name="Group 1668">
          <path id="Path_830" data-name="Path 830" d="M199.788,240.738s-12.7,3.513-21.887,4.864-14.862,1.351-16.753,5.945-17.294,56.474-20.537,62.689-5.134,20.266.541,20.536,22.7-35.4,22.7-35.4l5.134,9.728s-15.942,49.989-15.672,52.151,7.3,6.485,20.536,7.566,14.592.811,23.779,3.243,21.617-.811,27.562-4.053,12.7-4.323,15.4-5.944,2.7-1.891,2.7-5.134-12.7-49.99-12.7-49.99l7.567-20,15.507,32.726s2.412,5.446,2.6,6.185c.811,3.243,5.944,7.3,10.808,6.215s9.728-4.594,8.377-12.7S251.4,254.79,249.777,249.926s.27-9.458-6.485-11.079-39.991.27-39.991.27Z" transform="translate(-137.518 -238.19)" fill="#43b17e"/>
          <g id="Group_1667" data-name="Group 1667" clip-path="url(#clip-path-4)">
            <path id="Path_831" data-name="Path 831" d="M265.34,249.926c-1.621-4.864.27-9.458-6.485-11.079-6.117-1.468-33.946-.056-39.151.224l1.861,6.261s12.565,2.432,19.861,2.432,13.376-.811,16.213,6.89,20.266,57.961,26.751,68.5A58.512,58.512,0,0,0,288.564,329c2.023-2.039,3.2-5.122,2.447-9.631C289.659,311.264,266.961,254.79,265.34,249.926Z" transform="translate(-153.081 -238.19)" opacity="0.3"/>
            <path id="Path_832" data-name="Path 832" d="M245.658,368.845c2.7-1.621,2.7-1.891,2.7-5.134s-12.7-49.99-12.7-49.99l7.246-19.151c-2.082-3.048-5.176-8.038-4.814-10.3A91.359,91.359,0,0,0,238.632,274s-2.027,12.97-7.7,20.266S196.479,304.8,182.292,304.8c-7.4,0-11.489.884-12.9,2.247l2.494,4.724c5.755,3.645,19.846,8.855,35.539,11.269,15.808,2.432,23.914,34.452,26.751,38.911s-6.08,11.349-11.754,12.16-13.376-3.243-21.077-2.432-11.349,4.864-13.781.811-.811-13.781-3.243-9.322-3.243,9.728-6.08,9.728c-2.034,0-9.275-.208-13.959-.476a49.824,49.824,0,0,0,14.635,3.178c13.241,1.081,14.592.811,23.779,3.243s21.617-.811,27.562-4.053S242.955,370.466,245.658,368.845Z" transform="translate(-142.586 -244.971)" opacity="0.3"/>
            <path id="Path_833" data-name="Path 833" d="M166.269,313.026l.156-.4s-5.388-8.231-4.788-11.749-.076-13.38-.076-13.38-7.3,27.562-10.538,32.831S138.457,340.6,138.457,340.6s-.071.3-.184.811c.558,1.594,1.524,2.63,3.021,2.7,5.674.271,22.7-35.4,22.7-35.4Z" transform="translate(-137.661 -247.527)" opacity="0.3"/>
          </g>
          <path id="Path_835" data-name="Path 835" d="M199.788,240.738s-12.7,3.513-21.887,4.864-14.862,1.351-16.753,5.945-17.294,56.474-20.537,62.689-5.134,20.266.541,20.536,22.7-35.4,22.7-35.4l5.134,9.728s-15.942,49.989-15.672,52.151,7.3,6.485,20.536,7.566,14.592.811,23.779,3.243,21.617-.811,27.562-4.053,12.7-4.323,15.4-5.944,2.7-1.891,2.7-5.134-12.7-49.99-12.7-49.99l7.567-20s17.293,35.668,18.1,38.911,5.944,7.3,10.808,6.215,9.728-4.594,8.377-12.7S251.4,254.79,249.777,249.926s.27-9.458-6.485-11.079-39.991.27-39.991.27Z" transform="translate(-137.518 -238.19)" fill="none" stroke="#263238" stroke-linecap="round" stroke-linejoin="round" stroke-width="1"/>
        </g>
        <path id="Path_836" data-name="Path 836" d="M260.458,292.021s-4.594-5.674-5.135-9.457S259.918,265,259.918,265" transform="translate(-159.818 -243.267)" fill="none" stroke="#263238" stroke-linecap="round" stroke-linejoin="round" stroke-width="1"/>
        <path id="Path_837" data-name="Path 837" d="M169.45,307.562s-2.356-4.545-2.356-7.832,4.459-18.306,4.459-18.306" transform="translate(-143.119 -246.377)" fill="none" stroke="#263238" stroke-linecap="round" stroke-linejoin="round" stroke-width="1"/>
      </g>
      <path id="Path_838" data-name="Path 838" d="M220.744,252.941A107.431,107.431,0,0,0,232.45,238.42c-9.121.27-17.381.74-17.381.74l-3.513,1.621s-4.544,1.257-10.161,2.556c-.312,4.45-.983,14.336-1.188,19.872-.27,7.3-.54,10.808-.54,10.808S210.745,263.479,220.744,252.941Z" transform="translate(-141.03 -143.504)" fill="none" stroke="#263238" stroke-linecap="round" stroke-linejoin="round" stroke-width="1"/>
      <g id="Group_1671" data-name="Group 1671" transform="translate(0.487 161.1)">
        <path id="Path_839" data-name="Path 839" d="M145.822,327.038s-3.243,20.536-6.485,23.238-8.376,1.892-10.538-8.106,0-12.43,3.513-17.293S144.47,316.229,145.822,327.038Z" transform="translate(-127.934 -320.064)" fill="#43b17e"/>
        <g id="Group_1670" data-name="Group 1670" clip-path="url(#clip-path-5)">
          <path id="Path_840" data-name="Path 840" d="M145.822,327.038s-3.243,20.536-6.485,23.238-8.376,1.892-10.538-8.106,0-12.43,3.513-17.293S144.47,316.229,145.822,327.038Z" transform="translate(-127.934 -320.064)" fill="#43b17e" opacity="0.3"/>
        </g>
        <path id="Path_842" data-name="Path 842" d="M145.822,327.038s-3.243,20.536-6.485,23.238-8.376,1.892-10.538-8.106,0-12.43,3.513-17.293S144.47,316.229,145.822,327.038Z" transform="translate(-127.934 -320.064)" fill="#43b17e" stroke="#263238" stroke-linecap="round" stroke-linejoin="round" stroke-width="1" opacity="0.9"/>
      </g>
      <g id="Group_1673" data-name="Group 1673" transform="translate(61.744 73.499)">
        <path id="Path_843" data-name="Path 843" d="M203.635,215.513s3.243,11.349,2.972,18.645-2.161,18.375-2.972,23.509,2.972,1.621,11.619-9.457,11.079-14.322,11.619-18.1.541-14.051.541-14.051a11.443,11.443,0,0,1-11.079,2.7c-6.755-1.891-11.078-6.755-12.16-6.755S203.635,215.513,203.635,215.513Z" transform="translate(-203.5 -212)" fill="#fff"/>
        <g id="Group_1672" data-name="Group 1672" clip-path="url(#clip-path-6)">
          <path id="Path_844" data-name="Path 844" d="M216.335,218.755c-6.755-1.891-11.078-6.755-12.16-6.755s-.54,3.513-.54,3.513.651,2.283,1.346,5.456c3.342,4.108,9.87,12.122,10.814,13.189,1.278,1.445,3.632,7.3-.541,14.052,8.647-11.079,11.079-14.322,11.619-18.1s.541-14.051.541-14.051A11.443,11.443,0,0,1,216.335,218.755Z" transform="translate(-203.5 -212)" fill="#263238" opacity="0.2"/>
        </g>
        <path id="Path_846" data-name="Path 846" d="M203.635,215.513s3.243,11.349,2.972,18.645-2.161,18.375-2.972,23.509,2.972,1.621,11.619-9.457,11.079-14.322,11.619-18.1.541-14.051.541-14.051a11.443,11.443,0,0,1-11.079,2.7c-6.755-1.891-11.078-6.755-12.16-6.755S203.635,215.513,203.635,215.513Z" transform="translate(-203.5 -212)" fill="none" stroke="#263238" stroke-linecap="round" stroke-linejoin="round" stroke-width="1"/>
      </g>
      <g id="Group_1679" data-name="Group 1679" transform="translate(53.517 31.518)">
        <path id="Path_847" data-name="Path 847" d="M198.808,190.35s-3.03-3.535-5.05-.505,4.04,13.13,5.807,13.13,1.01-7.07,1.01-8.838S198.808,190.35,198.808,190.35Z" transform="translate(-193.351 -165.592)" fill="#fff" stroke="#263238" stroke-linecap="round" stroke-linejoin="round" stroke-width="1"/>
        <g id="Group_1675" data-name="Group 1675" transform="translate(38.632 25.804)">
          <path id="Path_848" data-name="Path 848" d="M242.936,193.776s3.029-3.535,5.049-.505-4.04,13.13-5.807,13.13-1.01-7.07-1.01-8.838S242.936,193.776,242.936,193.776Z" transform="translate(-241.007 -192.044)" fill="#fff"/>
          <g id="Group_1674" data-name="Group 1674" clip-path="url(#clip-path-7)">
            <path id="Path_849" data-name="Path 849" d="M242.936,193.776s3.029-3.535,5.049-.505-4.04,13.13-5.807,13.13-1.01-7.07-1.01-8.838S242.936,193.776,242.936,193.776Z" transform="translate(-241.007 -192.044)" fill="#263238" opacity="0.2"/>
          </g>
          <path id="Path_851" data-name="Path 851" d="M242.936,193.776s3.029-3.535,5.049-.505-4.04,13.13-5.807,13.13-1.01-7.07-1.01-8.838S242.936,193.776,242.936,193.776Z" transform="translate(-241.007 -192.044)" fill="none" stroke="#263238" stroke-linecap="round" stroke-linejoin="round" stroke-width="1"/>
        </g>
        <g id="Group_1678" data-name="Group 1678" transform="translate(5.192)">
          <g id="Group_1677" data-name="Group 1677">
            <path id="Path_852" data-name="Path 852" d="M226.892,160.213c-.315.769-.536,1.689-1.123,2.03-.9.523-2.59-.412-3.534.053s-1.223,2.369-2.2,2.768-2.512-.755-3.509-.42-1.526,2.185-2.544,2.453-2.39-1.08-3.424-.878-1.8,1.966-2.842,2.1-2.229-1.381-3.281-1.313c-.908.058-1.784,1.33-2.7,1.648a40.643,40.643,0,0,0-1.976,13.288s-.252,16.665,1.515,21.21,11.11,12.878,14.393,13.383a6.334,6.334,0,0,0,6.312-2.02c1.514-1.515,11.362-9.595,12.372-12.878s4.8-24.492,3.535-31.562C237.12,165.731,232.437,162.154,226.892,160.213Z" transform="translate(-199.756 -160.213)" fill="#fff"/>
            <g id="Group_1676" data-name="Group 1676" clip-path="url(#clip-path-8)">
              <path id="Path_853" data-name="Path 853" d="M232.663,162.155c1.174,2.084,2.206,5.375,1.756,10.319-.922,10.139-.23,18.2-1.843,25.117s-7.13,14.5-10.218,16.222-6.834,1.291-10.981-1.014c-.078-.043-.156-.079-.234-.121,2.629,2.263,5.246,4,6.69,4.223a6.334,6.334,0,0,0,6.312-2.02c1.514-1.515,11.362-9.595,12.372-12.878s4.8-24.492,3.535-31.562C239.453,167.089,236.52,164.195,232.663,162.155Z" transform="translate(-201.912 -160.581)" fill="#263238" opacity="0.2"/>
            </g>
            <path id="Path_855" data-name="Path 855" d="M226.892,160.213c-.315.769-.536,1.689-1.123,2.03-.9.523-2.59-.412-3.534.053s-1.223,2.369-2.2,2.768-2.512-.755-3.509-.42-1.526,2.185-2.544,2.453-2.39-1.08-3.424-.878-1.8,1.966-2.842,2.1-2.229-1.381-3.281-1.313c-.908.058-1.784,1.33-2.7,1.648a40.643,40.643,0,0,0-1.976,13.288s-.252,16.665,1.515,21.21,11.11,12.878,14.393,13.383a6.334,6.334,0,0,0,6.312-2.02c1.514-1.515,11.362-9.595,12.372-12.878s4.8-24.492,3.535-31.562C237.12,165.731,232.437,162.154,226.892,160.213Z" transform="translate(-199.756 -160.213)" fill="none" stroke="#263238" stroke-linecap="round" stroke-linejoin="round" stroke-width="1"/>
          </g>
          <path id="Path_856" data-name="Path 856" d="M222.509,204.375s3.788.505,4.04-3.03" transform="translate(-204.064 -168.002)" fill="none" stroke="#263238" stroke-linecap="round" stroke-linejoin="round" stroke-width="1"/>
          <path id="Path_857" data-name="Path 857" d="M227.406,210.336s-4.544.757-12.372-1.515c0,0,1.01,6.06,5.049,7.07S227.406,210.336,227.406,210.336Z" transform="translate(-202.649 -169.417)" fill="none" stroke="#263238" stroke-linecap="round" stroke-linejoin="round" stroke-width="1"/>
          <path id="Path_858" data-name="Path 858" d="M217.341,191.89c-.049,1.463-.652,2.631-1.349,2.609s-1.223-1.228-1.175-2.691.652-2.631,1.348-2.609S217.389,190.427,217.341,191.89Z" transform="translate(-202.607 -165.702)" fill="#263238"/>
          <path id="Path_859" data-name="Path 859" d="M214.023,189.587a3.853,3.853,0,0,1,3.836.334" transform="translate(-202.457 -165.707)" fill="none" stroke="#263238" stroke-linecap="round" stroke-linejoin="round" stroke-width="1"/>
          <path id="Path_860" data-name="Path 860" d="M233.789,194.04c-.152,1.456-.838,2.578-1.532,2.5s-1.132-1.312-.978-2.768.838-2.578,1.532-2.5S233.943,192.584,233.789,194.04Z" transform="translate(-205.719 -166.093)" fill="#263238"/>
          <path id="Path_861" data-name="Path 861" d="M230.69,191.507a3.852,3.852,0,0,1,3.8.608" transform="translate(-205.613 -166.091)" fill="none" stroke="#263238" stroke-linecap="round" stroke-linejoin="round" stroke-width="1"/>
          <path id="Path_862" data-name="Path 862" d="M210.319,183.183a9.231,9.231,0,0,1,8.674-.5" transform="translate(-201.756 -164.307)" fill="none" stroke="#263238" stroke-linecap="round" stroke-linejoin="round" stroke-width="2"/>
          <path id="Path_863" data-name="Path 863" d="M229.866,184.561s4-2.669,8.006,2.168" transform="translate(-205.457 -164.685)" fill="none" stroke="#263238" stroke-linecap="round" stroke-linejoin="round" stroke-width="2"/>
        </g>
      </g>
      <g id="Group_1687" data-name="Group 1687" transform="translate(46.298 140.7)">
        <g id="Group_1681" data-name="Group 1681" transform="translate(55.557 26.477)">
          <path id="Path_864" data-name="Path 864" d="M257.319,352.777S253.266,344.4,253,336.834s2.973-11.619,6.485-7.836S260.292,348.993,257.319,352.777Z" transform="translate(-252.981 -327.56)" fill="#c6ff00"/>
          <g id="Group_1680" data-name="Group 1680" clip-path="url(#clip-path-9)">
            <path id="Path_865" data-name="Path 865" d="M257.319,352.777S253.266,344.4,253,336.834s2.973-11.619,6.485-7.836S260.292,348.993,257.319,352.777Z" transform="translate(-252.981 -327.56)" opacity="0.3"/>
          </g>
          <path id="Path_867" data-name="Path 867" d="M257.319,352.777S253.266,344.4,253,336.834s2.973-11.619,6.485-7.836S260.292,348.993,257.319,352.777Z" transform="translate(-252.981 -327.56)" fill="#2e7b58" stroke="#263238" stroke-linecap="round" stroke-linejoin="round" stroke-width="1"/>
        </g>
        <g id="Group_1684" data-name="Group 1684">
          <g id="Group_1683" data-name="Group 1683">
            <path id="Path_868" data-name="Path 868" d="M275.417,320.381s-18.1,0-28.1-3.782-18.915-9.188-23.509-13.511-6.215-5.4-11.619-5.944-9.458-3.513-9.458-1.621,1.621,3.243,3.243,4.053,7.566,3.513,7.566,3.513.541,1.351-5.134,2.432a78.265,78.265,0,0,0-16.483,5.134c-4.864,2.162-6.485,3.783-4.864,4.324s6.755-1.351,7.836-1.351,7.026-.811,7.026-.811-11.079,4.864-12.7,6.215-6.214,3.243-4.323,4.053,9.728-.541,9.728-.541-8.106,2.432-4.864,3.513,10-.54,10-.54,7.836,1.081,10,0,14.862-6.485,14.862-6.485,19.455,16.753,36.209,20.806,16.483,0,16.483,0" transform="translate(-184.446 -294.899)" fill="#fff"/>
            <g id="Group_1682" data-name="Group 1682" clip-path="url(#clip-path-10)">
              <path id="Path_869" data-name="Path 869" d="M256.906,339.229c3.249-1.438,5.8-2.622,5.8-2.622l.8-16.191c-5.336-.52-11.36-1.452-15.793-3.129-10-3.783-18.915-9.188-23.509-13.511-3.219-3.03-4.982-4.465-7.607-5.24,1.386,1.155,2.743,2.637,2.743,4.024,0,2.837-4.864,5.674-8.512,7.3l-14.592,6.485s11.754-4.864,10.944-2.027-8.917,6.485-17.023,8.512a27.264,27.264,0,0,0-3.61,1.175,50.071,50.071,0,0,0,8.474-.769s-8.106,2.432-4.864,3.513,10-.54,10-.54,7.836,1.081,10,0,14.862-6.485,14.862-6.485S241.3,333.739,256.906,339.229Z" transform="translate(-184.844 -295.588)" fill="#263238" opacity="0.2"/>
            </g>
            <path id="Path_871" data-name="Path 871" d="M275.417,320.381s-18.1,0-28.1-3.782-18.915-9.188-23.509-13.511-6.215-5.4-11.619-5.944-9.458-3.513-9.458-1.621,1.621,3.243,3.243,4.053,7.566,3.513,7.566,3.513.541,1.351-5.134,2.432a78.265,78.265,0,0,0-16.483,5.134c-4.864,2.162-6.485,3.783-4.864,4.324s6.755-1.351,7.836-1.351,7.026-.811,7.026-.811-11.079,4.864-12.7,6.215-6.214,3.243-4.323,4.053,9.728-.541,9.728-.541-8.106,2.432-4.864,3.513,10-.54,10-.54,7.836,1.081,10,0,14.862-6.485,14.862-6.485,19.455,16.753,36.209,20.806,16.483,0,16.483,0" transform="translate(-184.446 -294.899)" fill="none" stroke="#263238" stroke-linecap="round" stroke-linejoin="round" stroke-width="1"/>
          </g>
          <line id="Line_28" data-name="Line 28" y1="3.363" x2="9.553" transform="translate(10.177 24.281)" fill="none" stroke="#263238" stroke-linecap="round" stroke-linejoin="round" stroke-width="1"/>
          <line id="Line_29" data-name="Line 29" y1="1.641" x2="6.297" transform="translate(15.311 28.975)" fill="none" stroke="#263238" stroke-linecap="round" stroke-linejoin="round" stroke-width="1"/>
        </g>
        <g id="Group_1686" data-name="Group 1686" transform="translate(59.896 21.699)">
          <path id="Path_872" data-name="Path 872" d="M298.325,340.582c-1.081,6.755-4.053,11.349-16.484,11.079s-23.509,0-23.509,0a76.225,76.225,0,0,0,2.162-11.89c.811-7.3.811-18.1.811-18.1s17.023,3.782,30.8,2.432" transform="translate(-258.333 -321.667)" fill="#43b17e"/>
          <g id="Group_1685" data-name="Group 1685" clip-path="url(#clip-path-11)">
            <path id="Path_873" data-name="Path 873" d="M298.325,340.582c-1.081,6.755-4.053,11.349-16.484,11.079s-23.509,0-23.509,0a76.225,76.225,0,0,0,2.162-11.89c.811-7.3.811-18.1.811-18.1s17.023,3.782,30.8,2.432" transform="translate(-258.333 -321.667)" fill="#43b17e" opacity="0.3"/>
          </g>
          <path id="Path_875" data-name="Path 875" d="M298.325,340.582c-1.081,6.755-4.053,11.349-16.484,11.079s-23.509,0-23.509,0a76.225,76.225,0,0,0,2.162-11.89c.811-7.3.811-18.1.811-18.1s17.023,3.782,30.8,2.432" transform="translate(-258.333 -321.667)" fill="#43b17e" stroke="#263238" stroke-linecap="round" stroke-linejoin="round" stroke-width="1"/>
        </g>
      </g>
      <g id="Group_1695" data-name="Group 1695" transform="translate(0 88.23)">
        <g id="Group_1689" data-name="Group 1689" transform="translate(0 40.514)">
          <path id="Path_876" data-name="Path 876" d="M147.329,280.839s-1.458,4.5-10.268,21.077c-7.427,13.972-9.728,20-9.728,25.13s4.594,11.079,11.349,6.755,8.937-9.509,10.018-17.075,6.914-32.475,6.914-32.475S153.814,278.137,147.329,280.839Z" transform="translate(-127.333 -280.15)" fill="#fff"/>
          <g id="Group_1688" data-name="Group 1688" clip-path="url(#clip-path-12)">
            <path id="Path_877" data-name="Path 877" d="M148.953,316.727c1.081-7.566,6.914-32.475,6.914-32.475s-1.309-4.436-5.708-4.077l-1.607,6.407s-5.834,31.142-11.509,39.249a12.574,12.574,0,0,1-8.373,5.583c1.739,3.337,5.452,5.468,10.264,2.388C145.691,329.478,147.872,324.293,148.953,316.727Z" transform="translate(-127.586 -280.151)" fill="#263238" opacity="0.2"/>
          </g>
          <path id="Path_879" data-name="Path 879" d="M147.329,280.839s-1.458,4.5-10.268,21.077c-7.427,13.972-9.728,20-9.728,25.13s4.594,11.079,11.349,6.755,8.937-9.509,10.018-17.075,6.914-32.475,6.914-32.475S153.814,278.137,147.329,280.839Z" transform="translate(-127.333 -280.15)" fill="none" stroke="#263238" stroke-linecap="round" stroke-linejoin="round" stroke-width="1"/>
        </g>
        <g id="Group_1694" data-name="Group 1694" transform="translate(11.784)">
          <g id="Group_1690" data-name="Group 1690" transform="translate(0 31.977)">
            <path id="Path_880" data-name="Path 880" d="M152.784,269.658s-9.187,0-10.268,1.351-1.081,4.864,2.161,4.864,8.377-.27,10-1.351S155.5,269.166,152.784,269.658Z" transform="translate(-141.869 -269.619)" fill="#fff" stroke="#263238" stroke-linecap="round" stroke-linejoin="round" stroke-width="1"/>
            <path id="Path_881" data-name="Path 881" d="M150.581,287.793a4.733,4.733,0,0,0,1.643,4.225c2.112,1.877,6.1.7,5.4-.469s-4.929-3.521-4.929-3.521S151.6,287.9,150.581,287.793Z" transform="translate(-143.51 -273.06)" fill="#fff" stroke="#263238" stroke-linecap="round" stroke-linejoin="round" stroke-width="1"/>
            <path id="Path_882" data-name="Path 882" d="M149.787,282.639s-1.621,2.7-.541,4.053,4.053,1.621,7.567.811,4.593-4.594,1.621-4.864A86,86,0,0,0,149.787,282.639Z" transform="translate(-143.196 -272.061)" fill="#fff" stroke="#263238" stroke-linecap="round" stroke-linejoin="round" stroke-width="1"/>
            <path id="Path_883" data-name="Path 883" d="M147.975,277.134s-2.161,1.351-1.351,3.513,4.323,2.161,8.646,1.351,4.324-5.4,2.7-5.674S147.975,277.134,147.975,277.134Z" transform="translate(-142.735 -270.88)" fill="#fff" stroke="#263238" stroke-linecap="round" stroke-linejoin="round" stroke-width="1"/>
          </g>
          <g id="Group_1692" data-name="Group 1692" transform="translate(9.564 27.152)">
            <path id="Path_884" data-name="Path 884" d="M165.151,292.85h0a11.484,11.484,0,0,1-11.484-11.484v-17.7h22.968v17.7A11.485,11.485,0,0,1,165.151,292.85Z" transform="translate(-153.667 -263.667)" fill="#fff"/>
            <g id="Group_1691" data-name="Group 1691" clip-path="url(#clip-path-13)">
              <path id="Path_885" data-name="Path 885" d="M169.077,263.726v19.464s-.9,4.491-6.887,5.689a20.326,20.326,0,0,1-4.66.352,11.443,11.443,0,0,0,8.352,3.619h0a11.485,11.485,0,0,0,11.484-11.484v-17.7h-8.235Z" transform="translate(-154.398 -263.667)" opacity="0.3"/>
            </g>
            <path id="Path_887" data-name="Path 887" d="M165.151,292.85h0a11.484,11.484,0,0,1-11.484-11.484v-17.7h22.968v17.7A11.485,11.485,0,0,1,165.151,292.85Z" transform="translate(-153.667 -263.667)" fill="none" stroke="#263238" stroke-linecap="round" stroke-linejoin="round" stroke-width="1"/>
          </g>
          <g id="Group_1693" data-name="Group 1693" transform="translate(2.766)">
            <path id="Path_888" data-name="Path 888" d="M149.825,231.081a5.326,5.326,0,0,1,3.6-.865" transform="translate(-146.141 -230.172)" fill="none" stroke="#263238" stroke-linecap="round" stroke-linejoin="round" stroke-width="1"/>
            <path id="Path_889" data-name="Path 889" d="M158.631,256.724s1.475-3.6-1.967-7.7c-2.721-3.239-7.595-3.717-10.235-6.983-1.742-2.156-1.355-5.345.169-7.751" transform="translate(-145.281 -230.952)" fill="none" stroke="#263238" stroke-linecap="round" stroke-linejoin="round" stroke-width="1"/>
            <path id="Path_890" data-name="Path 890" d="M162.963,245.59s5.9,1.475,7.7,6.391.492,6.719.492,6.719" transform="translate(-148.629 -233.092)" fill="none" stroke="#263238" stroke-linecap="round" stroke-linejoin="round" stroke-width="1"/>
          </g>
        </g>
      </g>
    </g>
    <line id="Line_30" data-name="Line 30" x2="339.2" transform="translate(18 515.405)" fill="none" stroke="#263238" stroke-linecap="round" stroke-linejoin="round" stroke-width="1"/>
    <g id="Group_1706" data-name="Group 1706" transform="translate(237.347 365.506)">
      <rect id="Rectangle_376" data-name="Rectangle 376" width="90.069" height="162.325" rx="6.747" transform="translate(4.174)" fill="#263238" stroke="#263238" stroke-linecap="round" stroke-linejoin="round" stroke-width="1"/>
      <rect id="Rectangle_377" data-name="Rectangle 377" width="90.069" height="162.325" rx="6.747" fill="#fff" stroke="#263238" stroke-linecap="round" stroke-linejoin="round" stroke-width="1"/>
      <path id="Path_891" data-name="Path 891" d="M378.265,234.535H367.053a1.15,1.15,0,0,1-1.15-1.15h0a1.15,1.15,0,0,1,1.15-1.149h11.212a1.15,1.15,0,0,1,1.15,1.149h0A1.15,1.15,0,0,1,378.265,234.535Z" transform="translate(-327.004 -224.839)" fill="#263238"/>
      <g id="Group_1705" data-name="Group 1705" transform="translate(5.692 9.829)">
        <path id="Path_892" data-name="Path 892" d="M403.625,373.222H324.939V235.236h18.65l2.1,1.741a4.085,4.085,0,0,0,2.609.941H381.2a4.083,4.083,0,0,0,2.7-1.017l1.9-1.666h17.829Z" transform="translate(-324.939 -235.236)" fill="#263238"/>
        <g id="Group_1704" data-name="Group 1704" clip-path="url(#clip-path-14)">
          <g id="Group_1703" data-name="Group 1703" transform="translate(3.115 15.794)">
            <circle id="Ellipse_36" data-name="Ellipse 36" cx="25.737" cy="25.737" r="25.737" transform="translate(0 36.397) rotate(-45)" fill="none" stroke="#c6ff00" stroke-miterlimit="10" stroke-width="1"/>
            <circle id="Ellipse_37" data-name="Ellipse 37" cx="21.216" cy="21.216" r="21.216" transform="translate(15.182 15.182)" fill="#43b17e"/>
            <g id="Group_1697" data-name="Group 1697" transform="translate(5.019 81.556)">
              <path id="Path_893" data-name="Path 893" d="M399.721,360.921l.019,0H399.7a32.655,32.655,0,0,0-4.745-.858c-2.28-.174-4.106.7-5.018.7s-1.977-2.266-5.475-3.661-6.235,3.138-9.276,3.138c-1.446,0-2.377-1.026-3.316-2.14A6.949,6.949,0,0,0,370.3,356.4a4.033,4.033,0,0,0-2.26-1.051,10.695,10.695,0,0,0-1.368,0,4.031,4.031,0,0,0-2.259,1.051,6.91,6.91,0,0,0-1.573,1.692c-.938,1.113-1.869,2.139-3.316,2.139-3.042,0-5.778-4.533-9.276-3.138s-4.562,3.661-5.474,3.661-2.738-.871-5.019-.7a32.675,32.675,0,0,0-4.745.858h-.038l.019,0-.019,0h.038a32.675,32.675,0,0,0,4.745.858c2.281.174,4.106-.7,5.019-.7s1.977,2.267,5.474,3.661,6.235-3.138,9.276-3.138c1.447,0,2.378,1.027,3.316,2.14a6.907,6.907,0,0,0,1.573,1.691,4.031,4.031,0,0,0,2.259,1.051,10.321,10.321,0,0,0,1.368,0,4.033,4.033,0,0,0,2.26-1.051,6.921,6.921,0,0,0,1.572-1.691c.939-1.113,1.869-2.14,3.316-2.14,3.042,0,5.779,4.533,9.276,3.138s4.562-3.661,5.475-3.661,2.738.871,5.018.7a32.655,32.655,0,0,0,4.745-.858h.038Z" transform="translate(-334.973 -355.326)" fill="#43b17e"/>
              <path id="Path_894" data-name="Path 894" d="M396.928,361.359h-.023a18.066,18.066,0,0,0-2.859-.568,12.611,12.611,0,0,0-3.025.461c-.55,0-1.191-1.5-3.3-2.425s-3.757,2.078-5.59,2.078c-.871,0-1.432-.68-2-1.417a4.439,4.439,0,0,0-.947-1.12,2.339,2.339,0,0,0-1.362-.7,5.832,5.832,0,0,0-.824,0,2.345,2.345,0,0,0-1.362.7,4.455,4.455,0,0,0-.947,1.121c-.566.737-1.127,1.417-2,1.417a3.965,3.965,0,0,1-2.133-.984,6.792,6.792,0,0,0-1.728-1.094,2.281,2.281,0,0,0-1.729,0,6.807,6.807,0,0,0-1.728,1.094,3.965,3.965,0,0,1-2.133.984c-.871,0-1.432-.68-2-1.417a4.443,4.443,0,0,0-.948-1.12,2.337,2.337,0,0,0-1.362-.7,5.832,5.832,0,0,0-.824,0,2.341,2.341,0,0,0-1.361.7,4.46,4.46,0,0,0-.948,1.121c-.565.737-1.126,1.417-2,1.417-1.833,0-3.482-3-5.589-2.078s-2.75,2.425-3.3,2.425a12.6,12.6,0,0,0-3.024-.461,18.059,18.059,0,0,0-2.86.568h-.023l.011,0-.011,0h.023a18.142,18.142,0,0,0,2.86.569,12.634,12.634,0,0,0,3.024-.462c.55,0,1.192,1.5,3.3,2.425s3.757-2.078,5.589-2.078c.872,0,1.433.68,2,1.418a4.47,4.47,0,0,0,.948,1.12,2.341,2.341,0,0,0,1.361.7,5.819,5.819,0,0,0,.824,0,2.341,2.341,0,0,0,1.362-.7,4.47,4.47,0,0,0,.948-1.12c.565-.738,1.126-1.418,2-1.418a3.97,3.97,0,0,1,2.133.984A6.784,6.784,0,0,0,367.1,363.9a2.281,2.281,0,0,0,1.729,0,6.77,6.77,0,0,0,1.728-1.094,3.97,3.97,0,0,1,2.133-.984c.871,0,1.432.68,2,1.418a4.465,4.465,0,0,0,.947,1.12,2.345,2.345,0,0,0,1.362.7,5.819,5.819,0,0,0,.824,0,2.343,2.343,0,0,0,1.362-.7,4.467,4.467,0,0,0,.947-1.12c.566-.738,1.127-1.418,2-1.418,1.833,0,3.483,3,5.59,2.078s2.749-2.425,3.3-2.425a12.643,12.643,0,0,0,3.025.462,18.149,18.149,0,0,0,2.859-.569h.023l-.011,0Z" transform="translate(-335.737 -355.767)" fill="#43b17e" opacity="0.7"/>
            </g>
            <g id="Group_1702" data-name="Group 1702" transform="translate(28.698 19.769)">
              <path id="Path_895" data-name="Path 895" d="M372.467,301.214h0a4.276,4.276,0,0,1-4.275-4.276V283.381a4.276,4.276,0,0,1,4.275-4.275h0a4.276,4.276,0,0,1,4.275,4.275v13.556A4.276,4.276,0,0,1,372.467,301.214Z" transform="translate(-364.941 -279.106)" fill="#263238"/>
              <g id="Group_1701" data-name="Group 1701" transform="translate(0 10.48)">
                <g id="Group_1698" data-name="Group 1698">
                  <path id="Path_896" data-name="Path 896" d="M371.743,306.738a7.569,7.569,0,0,1-7.561-7.561v-6.361a.782.782,0,1,1,1.565,0v6.361a6,6,0,1,0,11.992,0v-6.361a.782.782,0,1,1,1.565,0v6.361A7.569,7.569,0,0,1,371.743,306.738Z" transform="translate(-364.182 -292.034)" fill="#263238"/>
                </g>
                <g id="Group_1699" data-name="Group 1699" transform="translate(6.779 13.14)">
                  <path id="Path_897" data-name="Path 897" d="M373.326,317.941a.782.782,0,0,1-.782-.781v-8.134a.782.782,0,1,1,1.564,0v8.134A.782.782,0,0,1,373.326,317.941Z" transform="translate(-372.544 -308.243)" fill="#263238"/>
                </g>
                <g id="Group_1700" data-name="Group 1700" transform="translate(1.565 21.69)">
                  <path id="Path_898" data-name="Path 898" d="M377.322,320.356H366.894a.782.782,0,1,1,0-1.565h10.428a.782.782,0,0,1,0,1.565Z" transform="translate(-366.112 -318.791)" fill="#263238"/>
                </g>
              </g>
            </g>
          </g>
          <path id="Path_899" data-name="Path 899" d="M403.75,313.385V235.236H385.921l-1.9,1.666a4.083,4.083,0,0,1-2.7,1.017H348.422a4.085,4.085,0,0,1-2.609-.941l-2.1-1.741H325.6Z" transform="translate(-325.064 -235.236)" fill="#fff" opacity="0.3"/>
        </g>
        <path id="Path_901" data-name="Path 901" d="M403.625,373.222H324.939V235.236h18.65l2.1,1.741a4.085,4.085,0,0,0,2.609.941H381.2a4.083,4.083,0,0,0,2.7-1.017l1.9-1.666h17.829Z" transform="translate(-324.939 -235.236)" fill="none" stroke="#263238" stroke-linecap="round" stroke-linejoin="round" stroke-width="1"/>
      </g>
      <path id="Path_902" data-name="Path 902" d="M375.738,410.282a1.788,1.788,0,1,0-1.788,1.788A1.788,1.788,0,0,0,375.738,410.282Z" transform="translate(-328.189 -258.215)" fill="#263238"/>
    </g>
  </g>
</svg>
