<svg xmlns="http://www.w3.org/2000/svg" width="314" height="256.095" viewBox="0 0 314 256.095">
  <g id="Group_1716" data-name="Group 1716" transform="translate(-9.431 -38)">
    <g id="Group_558" data-name="Group 558" transform="translate(76.452 160.584)">
      <path id="Path_349" data-name="Path 349" d="M126.971,250.838a7.382,7.382,0,0,0,5.458-2.417l-1.637-1.81a4.966,4.966,0,0,1-7.907-.348l-1.717,1.758A7.391,7.391,0,0,0,126.971,250.838Z" transform="translate(-115.664 -242.228)" fill="#2e7b58"/>
      <path id="Path_350" data-name="Path 350" d="M128.735,245.015a3.548,3.548,0,0,0,2.854-1.444l-1.749-1.934a1.121,1.121,0,0,1-2.228-.176,1.093,1.093,0,0,1,.023-.224l-1.967,2.014A3.555,3.555,0,0,0,128.735,245.015Z" transform="translate(-117.428 -240.257)" fill="#2e7b58"/>
      <path id="Path_351" data-name="Path 351" d="M130.405,239.625l-.109.112a1.123,1.123,0,0,1,.188-.025Z" transform="translate(-119.242 -239.625)" fill="#2e7b58"/>
      <path id="Path_352" data-name="Path 352" d="M132.523,256.089a12.778,12.778,0,0,1-18.7-.544l-1.711,1.752a15.227,15.227,0,0,0,22.041.6Z" transform="translate(-112.115 -245.866)" fill="#2e7b58"/>
      <path id="Path_353" data-name="Path 353" d="M125.1,256.889a11.5,11.5,0,0,0,8.236-3.474l-1.636-1.809a9.076,9.076,0,0,1-13.6-.437l-1.7,1.74A11.5,11.5,0,0,0,125.1,256.889Z" transform="translate(-113.798 -244.15)" fill="#2e7b58"/>
    </g>
    <g id="Group_561" data-name="Group 561" transform="translate(110.379 178.164)">
      <g id="Group_560" data-name="Group 560">
        <g id="Group_559" data-name="Group 559" transform="translate(5)">
          <path id="Path_354" data-name="Path 354" d="M211.144,321.222s.206,25.664.206,32.439-.206,36.23-.206,36.23" transform="translate(-186.604 -289.193)" fill="#43b17e" stroke="#263238" stroke-linecap="round" stroke-linejoin="round" stroke-width="3"/>
          <path id="Path_355" data-name="Path 355" d="M210.719,307.14l-6.365-5.338,17.862,2.053-15.809-5.133,16.22-2.874H204.354l14.167-10.676-16.015,8.007,9.239-15.809-12.319,14.167,4.312-20.737-8.007,19.3-.821-21.558-1.643,21.969L184.53,271.1l6.068,21.256L177.53,278.1l11.426,17.54L172.78,284.1l15.149,14.62-17.149-9.37,15.712,10.6L172.28,298.1l13.8,3.9-11.051,1.846,11.462-.408-6.775,4.517,16.015-4.312Z" transform="translate(-170.78 -268.54)" fill="#43b17e"/>
        </g>
        <path id="Path_356" data-name="Path 356" d="M200.79,363.772s-.616,5.338-.206,7.391a37.478,37.478,0,0,1,.616,7.186c0,2.669.206,2.874.206,4.722s-.206,17.546-.206,18.984v4.928" transform="translate(-177.408 -305.873)" fill="#43b17e" stroke="#263238" stroke-linecap="round" stroke-linejoin="round" stroke-width="3"/>
        <path id="Path_357" data-name="Path 357" d="M202.026,380.092a48.214,48.214,0,0,1,1.643-6.57c.821-2.053,1.437-1.437,1.642-3.9s.205-3.49.616-4.312a16.765,16.765,0,0,0,.821-2.258l.411-1.643" transform="translate(-178.029 -304.946)" fill="#43b17e" stroke="#263238" stroke-linecap="round" stroke-linejoin="round" stroke-width="3"/>
        <path id="Path_358" data-name="Path 358" d="M201.13,347.664l-6.365-5.338,17.862,2.053-15.809-5.133,16.22-2.874H194.766L208.932,325.7,192.918,333.7l9.239-15.809L189.838,332.06l4.312-20.737-8.007,19.3-.821-21.558-1.643,21.969-6.365-19.916,3.7,21.763-11.292-16.22,9.65,19.5-14.811-9.677,13.784,12.757-15.285-6.257,13.847,7.489-14.347-1.239,13.937,3.292-9.687,2.208,10.1-.771-6.775,4.517,16.015-4.312Z" transform="translate(-162.556 -284.427)" fill="#43b17e"/>
      </g>
      <path id="Path_359" data-name="Path 359" d="M188.484,424.757l-4.4,7.325a4.84,4.84,0,0,0-.523,3.742l1.953,7.276a2.425,2.425,0,0,0,2.342,1.8h20.018a2.424,2.424,0,0,0,2.342-1.8l1.953-7.276a4.834,4.834,0,0,0-.523-3.742l-4.4-7.325a1.66,1.66,0,0,0-1.423-.806H189.907A1.66,1.66,0,0,0,188.484,424.757Z" transform="translate(-170.727 -329.465)" fill="#fff" stroke="#263238" stroke-linejoin="round" stroke-width="1"/>
    </g>
    <g id="Group_565" data-name="Group 565" transform="translate(21.53 93.964)">
      <g id="Group_562" data-name="Group 562">
        <path id="Rectangle_211" data-name="Rectangle 211" d="M1.1,0H80.953a1.1,1.1,0,0,1,1.1,1.1V197.6a1.826,1.826,0,0,1-1.826,1.826H1.826A1.826,1.826,0,0,1,0,197.6V1.1A1.1,1.1,0,0,1,1.1,0Z" transform="translate(0 0.209)" fill="none" stroke="#263238" stroke-linejoin="round" stroke-width="1"/>
        <line id="Line_15" data-name="Line 15" y2="98.706" transform="translate(41.025 100.716)" fill="none" stroke="#263238" stroke-linejoin="round" stroke-width="1"/>
        <line id="Line_16" data-name="Line 16" y2="97.196" transform="translate(41.025)" fill="none" stroke="#263238" stroke-linejoin="round" stroke-width="1"/>
        <path id="Path_360" data-name="Path 360" d="M37.2,293.474h72.784a1.654,1.654,0,0,0,1.654-1.654h0a1.654,1.654,0,0,0-1.654-1.654H37.2a1.654,1.654,0,0,0-1.654,1.654h0A1.654,1.654,0,0,0,37.2,293.474Z" transform="translate(-31.769 -192.818)" fill="none" stroke="#263238" stroke-linejoin="round" stroke-width="1"/>
      </g>
      <rect id="Rectangle_212" data-name="Rectangle 212" width="23.378" height="45.366" transform="translate(50.079 19.375)" fill="none" stroke="#263238" stroke-linejoin="round" stroke-width="1"/>
      <rect id="Rectangle_213" data-name="Rectangle 213" width="19.711" height="24.796" transform="translate(51.912 22.933)" fill="none" stroke="#263238" stroke-linejoin="round" stroke-width="1"/>
      <g id="Group_563" data-name="Group 563" transform="translate(52.069 50.468)">
        <rect id="Rectangle_214" data-name="Rectangle 214" width="2.806" height="2.893" fill="none" stroke="#263238" stroke-linejoin="round" stroke-width="1"/>
        <rect id="Rectangle_215" data-name="Rectangle 215" width="2.806" height="2.893" transform="translate(4.209)" fill="none" stroke="#263238" stroke-linejoin="round" stroke-width="1"/>
        <rect id="Rectangle_216" data-name="Rectangle 216" width="2.806" height="2.893" transform="translate(8.418)" fill="none" stroke="#263238" stroke-linejoin="round" stroke-width="1"/>
        <rect id="Rectangle_217" data-name="Rectangle 217" width="2.806" height="2.893" transform="translate(12.626)" fill="none" stroke="#263238" stroke-linejoin="round" stroke-width="1"/>
        <rect id="Rectangle_218" data-name="Rectangle 218" width="2.806" height="2.893" transform="translate(16.835)" fill="none" stroke="#263238" stroke-linejoin="round" stroke-width="1"/>
      </g>
      <g id="Group_564" data-name="Group 564" transform="translate(52.069 55.118)">
        <rect id="Rectangle_219" data-name="Rectangle 219" width="2.806" height="2.893" fill="none" stroke="#263238" stroke-linejoin="round" stroke-width="1"/>
        <rect id="Rectangle_220" data-name="Rectangle 220" width="2.806" height="2.893" transform="translate(4.209)" fill="none" stroke="#263238" stroke-linejoin="round" stroke-width="1"/>
        <rect id="Rectangle_221" data-name="Rectangle 221" width="2.806" height="2.893" transform="translate(8.418)" fill="none" stroke="#263238" stroke-linejoin="round" stroke-width="1"/>
        <rect id="Rectangle_222" data-name="Rectangle 222" width="2.806" height="2.893" transform="translate(12.626)" fill="none" stroke="#263238" stroke-linejoin="round" stroke-width="1"/>
        <rect id="Rectangle_223" data-name="Rectangle 223" width="2.806" height="2.893" transform="translate(16.835)" fill="none" stroke="#263238" stroke-linejoin="round" stroke-width="1"/>
      </g>
      <rect id="Rectangle_224" data-name="Rectangle 224" width="20.846" height="30.035" transform="translate(8.862 53.481)" fill="none" stroke="#263238" stroke-linejoin="round" stroke-width="1"/>
      <rect id="Rectangle_225" data-name="Rectangle 225" width="13.283" height="30.035" transform="translate(12.643 53.481)" fill="none" stroke="#263238" stroke-linejoin="round" stroke-width="1"/>
      <rect id="Rectangle_226" data-name="Rectangle 226" width="13.283" height="9.295" transform="translate(12.643 53.481)" fill="none" stroke="#263238" stroke-linejoin="round" stroke-width="1"/>
    </g>
    <g id="Group_566" data-name="Group 566" transform="translate(130.019 45.299)">
      <path id="Path_361" data-name="Path 361" d="M304.115,80.424H190.334a55.908,55.908,0,0,1-2.927-17.568l-.052-10a2.832,2.832,0,0,1,2.831-2.846H304.258a2.831,2.831,0,0,1,2.831,2.85L307.019,63a55.911,55.911,0,0,1-2.712,16.825Z" transform="translate(-187.354 -50.006)" fill="none" stroke="#263238" stroke-linejoin="round" stroke-width="1"/>
      <rect id="Rectangle_227" data-name="Rectangle 227" width="99.084" height="4.645" transform="translate(10.328 25.772)" fill="none" stroke="#263238" stroke-linejoin="round" stroke-width="1"/>
    </g>
    <g id="Group_567" data-name="Group 567" transform="translate(208.919 76.869)">
      <path id="Path_362" data-name="Path 362" d="M329.926,113.145a7.381,7.381,0,0,0,5.458-2.417l-1.636-1.809a4.966,4.966,0,0,1-7.907-.348l-1.718,1.758A7.394,7.394,0,0,0,329.926,113.145Z" transform="translate(-318.619 -104.534)" fill="#2e7b58"/>
      <path id="Path_363" data-name="Path 363" d="M331.69,107.321a3.549,3.549,0,0,0,2.854-1.445l-1.749-1.934a1.121,1.121,0,0,1-2.228-.176,1.142,1.142,0,0,1,.022-.224l-1.966,2.014A3.554,3.554,0,0,0,331.69,107.321Z" transform="translate(-320.383 -102.563)" fill="#2e7b58"/>
      <path id="Path_364" data-name="Path 364" d="M333.36,101.931l-.109.112a1.126,1.126,0,0,1,.188-.024Z" transform="translate(-322.197 -101.931)" fill="#2e7b58"/>
      <path id="Path_365" data-name="Path 365" d="M335.478,118.395a12.778,12.778,0,0,1-18.7-.544L315.07,119.6a15.227,15.227,0,0,0,22.041.6Z" transform="translate(-315.07 -108.172)" fill="#2e7b58"/>
      <path id="Path_366" data-name="Path 366" d="M328.06,119.2a11.5,11.5,0,0,0,8.236-3.473l-1.637-1.81a9.076,9.076,0,0,1-13.6-.437l-1.7,1.741A11.5,11.5,0,0,0,328.06,119.2Z" transform="translate(-316.753 -106.456)" fill="#2e7b58"/>
    </g>
    <g id="Group_568" data-name="Group 568" transform="translate(202.53 237.489)">
      <rect id="Rectangle_228" data-name="Rectangle 228" width="61.029" height="7.576" transform="translate(26.546 14)" fill="none" stroke="#263238" stroke-linejoin="round" stroke-width="1"/>
      <rect id="Rectangle_229" data-name="Rectangle 229" width="114.121" height="34.541" transform="translate(0 21.564)" fill="none" stroke="#263238" stroke-linejoin="round" stroke-width="1"/>
      <rect id="Rectangle_230" data-name="Rectangle 230" width="108.042" height="30.127" transform="translate(3.039 23.771)" fill="none" stroke="#263238" stroke-linejoin="round" stroke-width="1"/>
      <line id="Line_17" data-name="Line 17" y2="30.25" transform="translate(39.118 23.632)" fill="none" stroke="#263238" stroke-linejoin="round" stroke-width="1"/>
      <line id="Line_18" data-name="Line 18" y2="30.25" transform="translate(74.512 23.632)" fill="none" stroke="#263238" stroke-linejoin="round" stroke-width="1"/>
      <rect id="Rectangle_231" data-name="Rectangle 231" width="15.412" height="21.576" transform="translate(8.181)" fill="none" stroke="#263238" stroke-linejoin="round" stroke-width="1"/>
      <rect id="Rectangle_232" data-name="Rectangle 232" width="15.412" height="21.576" transform="translate(90.249)" fill="none" stroke="#263238" stroke-linejoin="round" stroke-width="1"/>
    </g>
    <g id="Group_569" data-name="Group 569" transform="translate(246.232 233.919)">
      <path id="Path_367" data-name="Path 367" d="M386.376,373.151a7.381,7.381,0,0,0-5.458,2.417l1.636,1.809a4.967,4.967,0,0,1,7.907.348l1.717-1.758A7.4,7.4,0,0,0,386.376,373.151Z" transform="translate(-375.641 -365.305)" fill="#2e7b58"/>
      <path id="Path_368" data-name="Path 368" d="M388.055,379.488a3.547,3.547,0,0,0-2.853,1.445l1.749,1.934a1.121,1.121,0,1,1,2.205.4l1.966-2.014A3.555,3.555,0,0,0,388.055,379.488Z" transform="translate(-377.321 -367.789)" fill="#2e7b58"/>
      <path id="Path_369" data-name="Path 369" d="M390.08,387.242l.109-.112a1.066,1.066,0,0,1-.188.025Z" transform="translate(-379.202 -370.785)" fill="#2e7b58"/>
      <path id="Path_370" data-name="Path 370" d="M373.872,366.481a12.779,12.779,0,0,1,18.7.543l1.711-1.752a15.228,15.228,0,0,0-22.041-.6Z" transform="translate(-372.239 -360.246)" fill="#2e7b58"/>
      <path id="Path_371" data-name="Path 371" d="M384.585,366.362a11.5,11.5,0,0,0-8.236,3.473l1.637,1.81a9.076,9.076,0,0,1,13.6.436l1.7-1.74A11.5,11.5,0,0,0,384.585,366.362Z" transform="translate(-373.85 -362.644)" fill="#2e7b58"/>
    </g>
    <g id="Group_570" data-name="Group 570" transform="translate(301.079 38)">
      <path id="Path_372" data-name="Path 372" d="M471.892,69.616a3.526,3.526,0,1,1-3.526-3.526A3.526,3.526,0,0,1,471.892,69.616Z" transform="translate(-459.609 -49.012)" fill="none" stroke="#263238" stroke-linejoin="round" stroke-width="1"/>
      <path id="Path_373" data-name="Path 373" d="M473.749,100.263H456.236V86.446a8.757,8.757,0,0,1,8.757-8.757h0a8.757,8.757,0,0,1,8.757,8.757Z" transform="translate(-456.236 -53.559)" fill="none" stroke="#263238" stroke-linejoin="round" stroke-width="1"/>
      <line id="Line_19" data-name="Line 19" y1="17.078" transform="translate(8.757)" fill="none" stroke="#263238" stroke-linejoin="round" stroke-width="2"/>
    </g>
    <g id="Group_571" data-name="Group 571" transform="translate(45.84 38)">
      <path id="Path_374" data-name="Path 374" d="M84.973,69.616a3.526,3.526,0,1,1-3.526-3.526A3.526,3.526,0,0,1,84.973,69.616Z" transform="translate(-72.69 -49.012)" fill="none" stroke="#263238" stroke-linejoin="round" stroke-width="1"/>
      <path id="Path_375" data-name="Path 375" d="M86.831,100.263H69.317V86.446a8.757,8.757,0,0,1,8.757-8.757h0a8.757,8.757,0,0,1,8.757,8.757Z" transform="translate(-69.317 -53.559)" fill="none" stroke="#263238" stroke-linejoin="round" stroke-width="1"/>
      <line id="Line_20" data-name="Line 20" y1="17.078" transform="translate(8.757)" fill="none" stroke="#263238" stroke-linejoin="round" stroke-width="2"/>
    </g>
    <g id="Group_572" data-name="Group 572" transform="translate(12.995 71.239)">
      <path id="Path_376" data-name="Path 376" d="M114.876,106.809a7.382,7.382,0,0,0-2.417-5.458l-1.809,1.637a4.966,4.966,0,0,1-.348,7.907l1.758,1.717A7.392,7.392,0,0,0,114.876,106.809Z" transform="translate(-106.265 -96.074)" fill="#2e7b58"/>
      <path id="Path_377" data-name="Path 377" d="M109.053,108.489a3.548,3.548,0,0,0-1.445-2.854l-1.934,1.749a1.121,1.121,0,1,1-.4,2.205l2.013,1.966A3.552,3.552,0,0,0,109.053,108.489Z" transform="translate(-104.294 -97.754)" fill="#2e7b58"/>
      <path id="Path_378" data-name="Path 378" d="M103.662,110.514l.112.109a1.125,1.125,0,0,1-.024-.188Z" transform="translate(-103.662 -99.635)" fill="#2e7b58"/>
      <path id="Path_379" data-name="Path 379" d="M120.126,94.306a12.778,12.778,0,0,1-.543,18.7l1.752,1.711a15.227,15.227,0,0,0,.6-22.041Z" transform="translate(-109.903 -92.672)" fill="#2e7b58"/>
      <path id="Path_380" data-name="Path 380" d="M120.926,105.019a11.5,11.5,0,0,0-3.473-8.236l-1.81,1.636a9.076,9.076,0,0,1-.437,13.6l1.741,1.7A11.5,11.5,0,0,0,120.926,105.019Z" transform="translate(-108.187 -94.284)" fill="#2e7b58"/>
    </g>
    <rect id="Rectangle_233" data-name="Rectangle 233" width="101.676" height="68.176" transform="translate(210.411 118.588)" fill="none" stroke="#263238" stroke-linejoin="round" stroke-width="1"/>
    <rect id="Rectangle_234" data-name="Rectangle 234" width="96.157" height="62.42" transform="translate(213.171 121.466)" fill="none" stroke="#263238" stroke-linejoin="round" stroke-width="1"/>
    <g id="Group_573" data-name="Group 573" transform="translate(246.232 101.379)">
      <path id="Path_381" data-name="Path 381" d="M386.376,155.151a7.381,7.381,0,0,0-5.458,2.417l1.636,1.809a4.966,4.966,0,0,1,7.907.348l1.717-1.759A7.4,7.4,0,0,0,386.376,155.151Z" transform="translate(-375.641 -147.305)" fill="#2e7b58"/>
      <path id="Path_382" data-name="Path 382" d="M388.055,161.488a3.547,3.547,0,0,0-2.853,1.445l1.749,1.933a1.121,1.121,0,1,1,2.205.4l1.966-2.014A3.555,3.555,0,0,0,388.055,161.488Z" transform="translate(-377.321 -149.789)" fill="#2e7b58"/>
      <path id="Path_383" data-name="Path 383" d="M390.08,169.243l.109-.112a1.125,1.125,0,0,1-.188.024Z" transform="translate(-379.202 -152.785)" fill="#2e7b58"/>
      <path id="Path_384" data-name="Path 384" d="M373.872,148.481a12.779,12.779,0,0,1,18.7.543l1.711-1.752a15.228,15.228,0,0,0-22.041-.6Z" transform="translate(-372.239 -142.246)" fill="#2e7b58"/>
      <path id="Path_385" data-name="Path 385" d="M384.585,148.361a11.5,11.5,0,0,0-8.236,3.474l1.637,1.81a9.075,9.075,0,0,1,13.6.437l1.7-1.74A11.5,11.5,0,0,0,384.585,148.361Z" transform="translate(-373.85 -144.643)" fill="#2e7b58"/>
    </g>
    <g id="Group_611" data-name="Group 611" transform="translate(108.66 97.234)">
      <g id="Group_591" data-name="Group 591" transform="translate(0 0)">
        <path id="Path_386" data-name="Path 386" d="M220.026,146.983l-.161,43.194L194.251,156.84" transform="translate(-171.395 -139.958)" fill="none" stroke="#263238" stroke-miterlimit="10" stroke-width="1" stroke-dasharray="2"/>
        <path id="Path_387" data-name="Path 387" d="M174.284,219.532l36.474-9.83-36.673-13.9" transform="translate(-163.49 -159.095)" fill="none" stroke="#263238" stroke-miterlimit="10" stroke-width="1" stroke-dasharray="2"/>
        <line id="Line_21" data-name="Line 21" x1="21.347" y2="27.784" transform="translate(25.921 50.607)" fill="none" stroke="#263238" stroke-miterlimit="10" stroke-width="1" stroke-dasharray="2"/>
        <path id="Path_388" data-name="Path 388" d="M212.071,149.6a39.5,39.5,0,0,0-40.107,43.086,39.407,39.407,0,0,0,18.213,29.744" transform="translate(-162.592 -140.981)" fill="none" stroke="#263238" stroke-miterlimit="10" stroke-width="1" stroke-dasharray="2"/>
        <g id="Group_581" data-name="Group 581" transform="translate(2.365 28.78)">
          <path id="Path_389" data-name="Path 389" d="M177.714,191.353a8.583,8.583,0,1,0-8.586,8.579A8.583,8.583,0,0,0,177.714,191.353Z" transform="translate(-160.548 -182.766)" fill="#92e3a9"/>
          <g id="Group_580" data-name="Group 580" transform="translate(2.248 1.584)">
            <g id="Group_574" data-name="Group 574" transform="translate(2.653 2.929)">
              <path id="Path_390" data-name="Path 390" d="M172.386,199.707a2.668,2.668,0,0,1-2.454-1.619,1.439,1.439,0,0,1-.069-.186c-.012-.034-.027-.078-.04-.124-.294-.9-.666-1.806-.727-1.952a3.779,3.779,0,1,1,7.07-1.858,4.182,4.182,0,0,1-.376,1.646h0c-.094.227-.206.45-.318.672a6.909,6.909,0,0,0-.377.836c-.042.121-.076.242-.11.361a3.693,3.693,0,0,1-.327.862A2.565,2.565,0,0,1,172.386,199.707Zm0-8.7a2.964,2.964,0,0,0-2.962,2.96,3,3,0,0,0,.393,1.482l.021.042c.017.041.429,1.026.762,2.048.013.044.023.074.033.1a.827.827,0,0,0,.038.108,1.859,1.859,0,0,0,1.71,1.141,1.746,1.746,0,0,0,1.561-.947,3.058,3.058,0,0,0,.252-.683c.038-.134.077-.269.123-.4a7.74,7.74,0,0,1,.419-.937c.1-.2.207-.409.294-.618h0a3.4,3.4,0,0,0,.313-1.332A2.964,2.964,0,0,0,172.389,191.005Z" transform="translate(-168.61 -190.188)" fill="#263238"/>
            </g>
            <g id="Group_575" data-name="Group 575" transform="translate(6.03)">
              <path id="Path_391" data-name="Path 391" d="M174.573,188.079a.409.409,0,0,1-.409-.409v-1.89a.409.409,0,1,1,.817,0v1.89A.409.409,0,0,1,174.573,188.079Z" transform="translate(-174.164 -185.371)" fill="#263238"/>
            </g>
            <g id="Group_576" data-name="Group 576" transform="translate(0 6.282)">
              <path id="Path_392" data-name="Path 392" d="M166.136,196.521h-1.482a.409.409,0,0,1,0-.817h1.482a.409.409,0,0,1,0,.817Z" transform="translate(-164.246 -195.703)" fill="#263238"/>
            </g>
            <g id="Group_577" data-name="Group 577" transform="translate(10.473 6.286)">
              <path id="Path_393" data-name="Path 393" d="M183.362,196.528h-1.482a.409.409,0,0,1,0-.818h1.482a.409.409,0,0,1,0,.818Z" transform="translate(-181.472 -195.71)" fill="#263238"/>
            </g>
            <g id="Group_578" data-name="Group 578" transform="translate(1.381 1.735)">
              <path id="Path_394" data-name="Path 394" d="M168.1,190.218a.41.41,0,0,1-.289-.12l-1.174-1.176a.409.409,0,1,1,.578-.578l1.174,1.176a.409.409,0,0,1-.289.7Z" transform="translate(-166.518 -188.225)" fill="#263238"/>
            </g>
            <g id="Group_579" data-name="Group 579" transform="translate(9.606 1.739)">
              <path id="Path_395" data-name="Path 395" d="M180.454,190.224a.409.409,0,0,1-.289-.7l1.175-1.175a.409.409,0,0,1,.578.578l-1.176,1.175A.408.408,0,0,1,180.454,190.224Z" transform="translate(-180.046 -188.232)" fill="#263238"/>
            </g>
          </g>
        </g>
        <g id="Group_585" data-name="Group 585" transform="translate(15.653 9.795)">
          <path id="Path_396" data-name="Path 396" d="M199.57,160.191a8.583,8.583,0,1,0-8.652,8.513A8.583,8.583,0,0,0,199.57,160.191Z" transform="translate(-182.405 -151.539)" fill="#92e3a9"/>
          <g id="Group_584" data-name="Group 584" transform="translate(3.774 2.248)">
            <g id="Group_582" data-name="Group 582" transform="translate(0 1.821)">
              <path id="Path_397" data-name="Path 397" d="M193.408,167.587a4.835,4.835,0,0,1-1.807-9.3.686.686,0,0,1,.524,1.268,3.462,3.462,0,1,0,2.9.116.686.686,0,1,1,.624-1.222,4.835,4.835,0,0,1-2.237,9.141Z" transform="translate(-188.612 -158.232)" fill="#263238"/>
            </g>
            <g id="Group_583" data-name="Group 583" transform="translate(4.161)">
              <path id="Path_398" data-name="Path 398" d="M196.136,160.756a.686.686,0,0,1-.681-.691l.034-4.148a.686.686,0,1,1,1.372.011l-.033,4.148A.686.686,0,0,1,196.136,160.756Z" transform="translate(-195.455 -155.236)" fill="#263238"/>
            </g>
          </g>
        </g>
        <g id="Group_587" data-name="Group 587" transform="translate(14.403 67.941)">
          <circle id="Ellipse_16" data-name="Ellipse 16" cx="8.583" cy="8.583" r="8.583" transform="translate(0 7.68) rotate(-26.576)" fill="#92e3a9"/>
          <g id="Group_586" data-name="Group 586" transform="translate(6.779 5.224)">
            <path id="Path_399" data-name="Path 399" d="M199.062,259.718l-2.854-.01.006-1.642a2.292,2.292,0,0,0-2.281-2.3H193.8a2.291,2.291,0,0,0-2.3,2.28l-.007,2.078a.409.409,0,0,0,.817,0l.008-2.078a1.472,1.472,0,0,1,1.476-1.466h.132a1.473,1.473,0,0,1,1.466,1.476l-.005,1.642-1.281,0a.93.93,0,0,0-.933.925l-.018,4.953a.93.93,0,0,0,.926.933l4.953.018a.931.931,0,0,0,.933-.926l.018-4.953A.93.93,0,0,0,199.062,259.718Zm.091,5.883a.112.112,0,0,1-.113.111l-4.953-.018a.113.113,0,0,1-.112-.112l.018-4.953a.112.112,0,0,1,.112-.111l4.953.018a.112.112,0,0,1,.112.112Z" transform="translate(-191.497 -255.769)" fill="#263238"/>
            <path id="Path_400" data-name="Path 400" d="M199.406,265.9a.693.693,0,0,0-.275,1.33l0,1.143.539,0,0-1.143a.692.692,0,0,0-.264-1.331Z" transform="translate(-194.325 -259.739)" fill="#263238"/>
          </g>
        </g>
        <g id="Group_589" data-name="Group 589" transform="translate(0 49.643)">
          <circle id="Ellipse_17" data-name="Ellipse 17" cx="8.583" cy="8.583" r="8.583" transform="translate(0 5.243) rotate(-17.785)" fill="#92e3a9"/>
          <g id="Group_588" data-name="Group 588" transform="translate(6.958 4.787)">
            <path id="Path_401" data-name="Path 401" d="M172.937,231.1l.064-4.444a1.679,1.679,0,1,0-3.358-.049l-.005.348-1.011-.015a.47.47,0,1,0-.014.941l1.012.015-.01.7-1.012-.015a.47.47,0,1,0-.013.941l1.011.015-.01.7-1.012-.015a.47.47,0,0,0-.014.941l.928.014a2.963,2.963,0,1,0,3.444-.071Zm-1.705,4.459a2.027,2.027,0,0,1-2-2.055,2,2,0,0,1,1.039-1.728l.236-.133.074-5.023a.738.738,0,1,1,1.477.022l-.072,4.992.246.137a2.018,2.018,0,0,1-1,3.788Z" transform="translate(-168.102 -224.954)" fill="#263238"/>
            <path id="Path_402" data-name="Path 402" d="M179.279,226.856a1.881,1.881,0,1,0,1.854,1.908A1.883,1.883,0,0,0,179.279,226.856Zm-.041,2.822a.941.941,0,1,1,.955-.927A.941.941,0,0,1,179.238,229.677Z" transform="translate(-171.735 -225.699)" fill="#263238"/>
          </g>
        </g>
        <g id="Group_590" data-name="Group 590" transform="translate(38.048 0)">
          <circle id="Ellipse_18" data-name="Ellipse 18" cx="8.583" cy="8.583" r="8.583" transform="translate(0 16.527) rotate(-74.327)" fill="#92e3a9"/>
          <path id="Path_403" data-name="Path 403" d="M236.441,150.457l.028-5.384h-.005l0-.387a.915.915,0,0,0-.909-.919l-5.429-.027a.914.914,0,0,0-.917.908l0,.388,0,.931-.018,3.5a2.443,2.443,0,0,0-1.179-.309,1.977,1.977,0,1,0,2.222,1.972,1.735,1.735,0,0,0-.152-.706l.018-3.54.017,0,5.428.027.023,0-.013,2.589a2.445,2.445,0,0,0-1.179-.309,1.977,1.977,0,1,0,2.222,1.972A1.742,1.742,0,0,0,236.441,150.457Zm-8.45,1.725a1.092,1.092,0,1,1,1.341-1.057A1.224,1.224,0,0,1,227.991,152.182ZM235.563,146a.017.017,0,0,1-.018.017l-5.445-.045.024-1.335,5.446.045Zm-1.207,6.215a1.092,1.092,0,1,1,1.341-1.057A1.225,1.225,0,0,1,234.355,152.215Z" transform="translate(-221.797 -138.687)" fill="#263238"/>
        </g>
      </g>
      <g id="Group_610" data-name="Group 610" transform="translate(38.553 3.136)">
        <g id="Group_592" data-name="Group 592" transform="translate(54.375 39.951)">
          <path id="Path_404" data-name="Path 404" d="M311.126,206.3a8.59,8.59,0,0,1,4.052,4.052c1.135,2.755,10.86,27.716,11.184,29.661s-10.373,19.45-10.373,19.45l-3.079-2.918,3.4-14.263-4.376-10.535-2.431-3.4" transform="translate(-309.505 -206.298)" fill="#43b17e" stroke="#263238" stroke-linejoin="round" stroke-width="1"/>
          <path id="Path_405" data-name="Path 405" d="M325.976,270.836a9.936,9.936,0,0,0-8.239-.475L315.1,281.4l3.079,2.918S322.9,276.592,325.976,270.836Z" transform="translate(-311.7 -231.151)" fill="#43b17e" stroke="#263238" stroke-linejoin="round" stroke-width="1"/>
        </g>
        <g id="Group_602" data-name="Group 602" transform="translate(14.96 90.148)">
          <g id="Group_595" data-name="Group 595" transform="translate(4.255)">
            <path id="Path_406" data-name="Path 406" d="M288.967,288.862s4.262,8.455,3.723,11.693-1.979,71.416-1.979,71.416l-9.354.359-8.814-67.278-2.518.36-4.138,67.638-10.434-1.619-3.237-66.2-.54-14.751Z" transform="translate(-251.675 -288.862)" fill="#263238" stroke="#263238" stroke-linejoin="round" stroke-width="1"/>
            <g id="Group_593" data-name="Group 593" transform="translate(3.058 52.481)">
              <path id="Path_407" data-name="Path 407" d="M256.7,375.948a2.935,2.935,0,0,0,1.251-.52c.465-.4.4-.4,1.462.664s.8,1.528,1.662.864.665-.93,1.528.067.665,1.328,1.861,1.129,1.4-.531,1.4.466-.2,1.262.332,1.462a3.553,3.553,0,0,1,1.595,1.063c.4.531.6.266.8.863a2.212,2.212,0,0,0,.6.931Z" transform="translate(-256.705 -375.183)" fill="#5e5e5e" stroke="#263238" stroke-linejoin="round" stroke-width="1"/>
              <path id="Path_408" data-name="Path 408" d="M256.795,376.789a6.54,6.54,0,0,1,1,2.392c.2,1.263-.2,2.259.465,2.857s1.063.332,1.2.864-.2,1.063.133,1.262,1.661-.665,1.661-.266-.133.6.4.4.531-.864.864-.2.6,1.528.8,1.4a4.382,4.382,0,0,1,2.06-.8,2.418,2.418,0,0,1,1.263.266c.2.066.531.4.731.066a10.431,10.431,0,0,1,1.972-1.255Z" transform="translate(-256.74 -375.813)" fill="#5e5e5e" stroke="#263238" stroke-linejoin="round" stroke-width="1"/>
              <path id="Path_409" data-name="Path 409" d="M256.7,376.442l12.592,7.2S260.123,384.177,256.7,376.442Z" transform="translate(-256.705 -375.677)" fill="#fff" stroke="#263238" stroke-linejoin="round" stroke-width="1"/>
            </g>
            <g id="Group_594" data-name="Group 594" transform="translate(26.669 34.761)">
              <path id="Path_410" data-name="Path 410" d="M295.54,354.12a2.931,2.931,0,0,0,.091-1.351c-.15-.594-.18-.534,1.245-1.014s1.724-.034,1.513-1.1-.538-1.009.739-1.339,1.486,0,1.839-1.164.145-1.487,1.037-1.043,1.042.741,1.457.353a3.557,3.557,0,0,1,1.661-.955c.654-.121.5-.418,1.128-.33a2.211,2.211,0,0,0,1.1-.122Z" transform="translate(-295.54 -346.042)" fill="#5e5e5e" stroke="#263238" stroke-linejoin="round" stroke-width="1"/>
              <path id="Path_411" data-name="Path 411" d="M295.89,354.16a6.54,6.54,0,0,1,2.586.171c1.219.383,1.935,1.184,2.766.854s.77-.8,1.306-.687.863.651,1.19.443.143-1.783.5-1.606.477.385.534-.179-.537-.86.206-.863,1.635.144,1.6-.094a4.372,4.372,0,0,1,.2-2.2,2.42,2.42,0,0,1,.8-1.013c.148-.149.593-.3.385-.625a10.4,10.4,0,0,1-.247-2.325Z" transform="translate(-295.677 -346.037)" fill="#5e5e5e" stroke="#263238" stroke-linejoin="round" stroke-width="1"/>
              <path id="Path_412" data-name="Path 412" d="M295.54,354.115l12.045-8.078S303.988,354.494,295.54,354.115Z" transform="translate(-295.54 -346.037)" fill="#fff" stroke="#263238" stroke-linejoin="round" stroke-width="1"/>
            </g>
          </g>
          <g id="Group_598" data-name="Group 598" transform="translate(0 78.611)">
            <g id="Group_596" data-name="Group 596" transform="translate(0 2.139)">
              <path id="Path_413" data-name="Path 413" d="M253.069,422.418s-2.7.9-2.7,1.978,1.259,10.074,1.259,10.074-6.116,3.418-6.656,4.317-.18,5.216-.18,5.216h18.348s.54-4.5.54-6.116a37.228,37.228,0,0,0-.54-4.677l1.08-9.174S259.005,420.079,253.069,422.418Z" transform="translate(-244.677 -421.679)" fill="#fff" stroke="#263238" stroke-linejoin="round" stroke-width="1"/>
              <path id="Path_414" data-name="Path 414" d="M244.8,457.008h18.348s.116-.964.24-2.158h-18.7C244.716,456,244.8,457.008,244.8,457.008Z" transform="translate(-244.682 -434.683)" fill="#fff" stroke="#263238" stroke-linejoin="round" stroke-width="1"/>
            </g>
            <path id="Path_415" data-name="Path 415" d="M264.76,420.319a8.094,8.094,0,0,0-5.216-2.158,5.257,5.257,0,0,0-4.317,1.8l1.8,8.994h4.857Z" transform="translate(-248.812 -418.161)" fill="#fff" stroke="#263238" stroke-linejoin="round" stroke-width="1"/>
            <g id="Group_597" data-name="Group 597" transform="translate(7.074 10.61)">
              <path id="Path_416" data-name="Path 416" d="M263.02,436.627h-6.2a.508.508,0,0,1-.508-.507h0a.508.508,0,0,1,.508-.508h6.2a.508.508,0,0,1,.508.508h0A.508.508,0,0,1,263.02,436.627Z" transform="translate(-256.312 -435.612)" fill="#fff" stroke="#263238" stroke-linejoin="round" stroke-width="1"/>
              <path id="Path_417" data-name="Path 417" d="M263.02,438.667h-6.2a.508.508,0,0,1-.508-.508h0a.507.507,0,0,1,.508-.507h6.2a.507.507,0,0,1,.508.507h0A.508.508,0,0,1,263.02,438.667Z" transform="translate(-256.312 -436.412)" fill="#fff" stroke="#263238" stroke-linejoin="round" stroke-width="1"/>
              <path id="Path_418" data-name="Path 418" d="M263.02,440.707h-6.2a.508.508,0,0,1-.508-.508h0a.507.507,0,0,1,.508-.507h6.2a.507.507,0,0,1,.508.507h0A.508.508,0,0,1,263.02,440.707Z" transform="translate(-256.312 -437.211)" fill="#fff" stroke="#263238" stroke-linejoin="round" stroke-width="1"/>
              <path id="Path_419" data-name="Path 419" d="M263.02,442.747h-6.2a.508.508,0,0,1-.508-.508h0a.507.507,0,0,1,.508-.507h6.2a.507.507,0,0,1,.508.507h0A.508.508,0,0,1,263.02,442.747Z" transform="translate(-256.312 -438.011)" fill="#fff" stroke="#263238" stroke-linejoin="round" stroke-width="1"/>
            </g>
          </g>
          <g id="Group_601" data-name="Group 601" transform="translate(32.56 78.611)">
            <g id="Group_599" data-name="Group 599" transform="translate(0 2.139)">
              <path id="Path_420" data-name="Path 420" d="M309.384,422.418s2.7.9,2.7,1.978-1.259,10.074-1.259,10.074,6.116,3.418,6.656,4.317.18,5.216.18,5.216H299.31s-.54-4.5-.54-6.116a37.226,37.226,0,0,1,.54-4.677l-1.079-9.174S303.447,420.079,309.384,422.418Z" transform="translate(-298.231 -421.679)" fill="#fff" stroke="#263238" stroke-linejoin="round" stroke-width="1"/>
              <path id="Path_421" data-name="Path 421" d="M318.2,457.008H299.852s-.116-.964-.24-2.158h18.7C318.284,456,318.2,457.008,318.2,457.008Z" transform="translate(-298.772 -434.683)" fill="#fff" stroke="#263238" stroke-linejoin="round" stroke-width="1"/>
            </g>
            <path id="Path_422" data-name="Path 422" d="M304.148,420.319a8.1,8.1,0,0,1,5.217-2.158,5.257,5.257,0,0,1,4.317,1.8l-1.8,8.994h-4.857Z" transform="translate(-300.551 -418.161)" fill="#fff" stroke="#263238" stroke-linejoin="round" stroke-width="1"/>
            <g id="Group_600" data-name="Group 600" transform="translate(5.181 10.61)">
              <path id="Path_423" data-name="Path 423" d="M313.461,436.627h-6.2a.507.507,0,0,1-.507-.507h0a.507.507,0,0,1,.507-.508h6.2a.508.508,0,0,1,.508.508h0A.508.508,0,0,1,313.461,436.627Z" transform="translate(-306.753 -435.612)" fill="#fff" stroke="#263238" stroke-linejoin="round" stroke-width="1"/>
              <path id="Path_424" data-name="Path 424" d="M313.461,438.667h-6.2a.507.507,0,0,1-.507-.508h0a.507.507,0,0,1,.507-.507h6.2a.507.507,0,0,1,.508.507h0A.508.508,0,0,1,313.461,438.667Z" transform="translate(-306.753 -436.412)" fill="#fff" stroke="#263238" stroke-linejoin="round" stroke-width="1"/>
              <path id="Path_425" data-name="Path 425" d="M313.461,440.707h-6.2a.507.507,0,0,1-.507-.508h0a.507.507,0,0,1,.507-.507h6.2a.507.507,0,0,1,.508.507h0A.508.508,0,0,1,313.461,440.707Z" transform="translate(-306.753 -437.211)" fill="#fff" stroke="#263238" stroke-linejoin="round" stroke-width="1"/>
              <path id="Path_426" data-name="Path 426" d="M313.461,442.747h-6.2a.507.507,0,0,1-.507-.508h0a.507.507,0,0,1,.507-.507h6.2a.507.507,0,0,1,.508.507h0A.508.508,0,0,1,313.461,442.747Z" transform="translate(-306.753 -438.011)" fill="#fff" stroke="#263238" stroke-linejoin="round" stroke-width="1"/>
            </g>
          </g>
        </g>
        <g id="Group_603" data-name="Group 603" transform="translate(16.363 22.44)">
          <path id="Path_427" data-name="Path 427" d="M263.355,178.125s-.472,8.251-.63,9.511-4.721,3.619-8.655,5.508-7.239,2.675-7.082,4.406,2.518,66.253,2.518,66.253a44.952,44.952,0,0,0,13.219-3.148,53.5,53.5,0,0,0,16.524-10.072,32.432,32.432,0,0,1,7.868-4.878s.63-30.53.63-35.88,1.1-10.859.787-13.062-9.757-4.878-12.118-5.98l-2.36-1.1a13.522,13.522,0,0,1,.944-4.947l.944-1.888L263.827,177.5Z" transform="translate(-246.983 -177.496)" fill="#43b17e" stroke="#263238" stroke-linejoin="round" stroke-width="1"/>
          <path id="Path_428" data-name="Path 428" d="M280.665,294.241a32.433,32.433,0,0,1,7.868-4.878s0-.177.01-.5c-2.4.114-4.7,1.344-14.775,4.749a114.015,114.015,0,0,1-23.173,4.947c.2,5.4.327,8.9.327,8.9a44.952,44.952,0,0,0,13.219-3.148A53.5,53.5,0,0,0,280.665,294.241Z" transform="translate(-248.399 -221.154)" fill="#43b17e" stroke="#263238" stroke-linejoin="round" stroke-width="1"/>
          <path id="Path_429" data-name="Path 429" d="M250.322,292.874s28.04-3.89,38.089-7.132" transform="translate(-248.292 -219.931)" fill="#43b17e" stroke="#263238" stroke-linejoin="round" stroke-width="1"/>
        </g>
        <g id="Group_605" data-name="Group 605" transform="translate(27.566 22.44)">
          <path id="Path_430" data-name="Path 430" d="M283.641,190.783l-2.36-1.1a13.521,13.521,0,0,1,.944-4.947l.944-1.889-12.118-5.35-.472.629s-.472,8.251-.63,9.511c-.1.821-2.084,2.112-4.539,3.434,1.521,1.681,5.525,5.653,10.2,6.638,3.768.793,7.035-3.286,8.977-6.532C284.212,191.03,283.886,190.9,283.641,190.783Z" transform="translate(-265.411 -177.496)" fill="#fff" stroke="#263238" stroke-linejoin="round" stroke-width="1"/>
          <g id="Group_604" data-name="Group 604" transform="translate(7.523 20.01)">
            <path id="Path_431" data-name="Path 431" d="M282.222,217.886l.131-1.28a24.213,24.213,0,0,0,0-4.914l-.131-1.28s-2.974-.153-3.889,1.22-.461,3.937-.229,4.728C278.486,217.657,282.222,217.886,282.222,217.886Z" transform="translate(-277.784 -210.408)" fill="#263238" stroke="#263238" stroke-linejoin="round" stroke-width="1"/>
            <path id="Path_432" data-name="Path 432" d="M282.222,232.812l.131-1.28a24.213,24.213,0,0,0,0-4.914l-.131-1.28s-2.974-.153-3.889,1.22-.461,3.937-.229,4.728C278.486,232.583,282.222,232.812,282.222,232.812Z" transform="translate(-277.784 -216.259)" fill="#263238" stroke="#263238" stroke-linejoin="round" stroke-width="1"/>
            <line id="Line_22" data-name="Line 22" y2="1.601" transform="translate(4.438 7.478)" fill="none" stroke="#263238" stroke-linejoin="round" stroke-width="1"/>
            <line id="Line_23" data-name="Line 23" y2="1.449" transform="translate(3.523 7.478)" fill="none" stroke="#263238" stroke-linejoin="round" stroke-width="1"/>
          </g>
          <path id="Path_433" data-name="Path 433" d="M285.556,184.735l.944-1.889-12.118-5.35-.472.629v.027l1.034,1.789a16.85,16.85,0,0,0,9.928,7.592A9.628,9.628,0,0,1,285.556,184.735Z" transform="translate(-268.743 -177.496)" fill="#263238" stroke="#263238" stroke-linejoin="round" stroke-width="1"/>
        </g>
        <g id="Group_606" data-name="Group 606" transform="translate(31.942 7.413)">
          <path id="Path_434" data-name="Path 434" d="M287.092,155.06a43.345,43.345,0,0,1,1.888,5.036,2.481,2.481,0,0,1-.472,1.259s2.833,2.676,2.675,3.3-1.573,1.417-1.573,1.417,1.1,5.823,1.1,6.609-2.2,2.675-6.609,2.2a13.065,13.065,0,0,1-7.239-3.3s-4.092-4.406-4.249-7.082,2.99-10.386,6.924-11.488S287.092,155.06,287.092,155.06Z" transform="translate(-272.608 -152.78)" fill="#fff" stroke="#263238" stroke-linejoin="round" stroke-width="1"/>
          <path id="Path_435" data-name="Path 435" d="M294.685,167.13c0,.565-.246,1.023-.551,1.023s-.551-.458-.551-1.023.247-1.023.551-1.023S294.685,166.565,294.685,167.13Z" transform="translate(-280.831 -158.005)" fill="#263238"/>
          <path id="Path_436" data-name="Path 436" d="M291.513,164.77s1.573-2.046,3.462-.944" transform="translate(-280.019 -156.983)" fill="none" stroke="#263238" stroke-linejoin="round" stroke-width="1"/>
          <path id="Path_437" data-name="Path 437" d="M290.995,175.684s.944,1.573,4.249.944" transform="translate(-279.816 -161.759)" fill="none" stroke="#263238" stroke-linejoin="round" stroke-width="1"/>
        </g>
        <path id="Path_438" data-name="Path 438" d="M268.783,149.808s-5.035,1.888-5.508,4.878,3.777,7.082,4.407,7.712,4.249.629,5.193-.63-.472-3.3.472-4.092,2.2-.472,2.518-2.833-.787-3.3.787-4.092,3.62.944,6.767-.472,2.2-6.924-1.259-8.97-8.97.787-9.128,1.888.944,2.518,0,2.675-2.99-.472-3.3,1.1A12.576,12.576,0,0,1,268.783,149.808Z" transform="translate(-236.993 -140.587)" fill="#263238" stroke="#263238" stroke-linejoin="round" stroke-width="1"/>
        <path id="Path_439" data-name="Path 439" d="M275.714,175.195s-1.731-3.462-4.092-3.148-1.731,5.508,0,6.609,4.092-1.1,4.092-1.1" transform="translate(-239.675 -152.912)" fill="#fff" stroke="#263238" stroke-linejoin="round" stroke-width="1"/>
        <path id="Path_440" data-name="Path 440" d="M239.135,207.116s-4.563,1.888-5.35,4.407S223.241,237.016,222.3,238.9s.157,5.193,1.889,5.823,2.675,0,4.406-1.259,10.544-16.052,10.544-16.052" transform="translate(-220.807 -166.668)" fill="#43b17e" stroke="#263238" stroke-linejoin="round" stroke-width="1"/>
        <g id="Group_609" data-name="Group 609" transform="translate(0 40.71)">
          <rect id="Rectangle_235" data-name="Rectangle 235" width="7.825" height="17.404" rx="1.875" transform="translate(5.851 0.137) rotate(-1.005)" fill="#263238" stroke="#263238" stroke-linejoin="round" stroke-width="1"/>
          <g id="Group_608" data-name="Group 608" transform="translate(0 5.114)">
            <path id="Path_441" data-name="Path 441" d="M224.643,231.87s-.046-9.087-.112-10.373,1.487-2.6,2.429-3.241,4.974-2.5,5.456-2.281.33,1.011-.325,1.48-3.551,2.079-4.1,2.526-.5,2.167-.5,2.167,3.332-1.6,4.319-2.031,2.079-.89,2.48-.545a.92.92,0,0,1,.2.93,1.63,1.63,0,0,1,.353,1.114c-.093.562-2.416,2.805-3.152,3.4a19.963,19.963,0,0,0-1.53,1.419s4.421-1.079,4.731-1.147.675.61-.187,1.124a35.348,35.348,0,0,1-4.1,1.55,14.257,14.257,0,0,1-.937,3.13,4.752,4.752,0,0,1-1.945,2.485s1.868,9.987.507,12.669-5.6,4.587-7.3,1.278a9.453,9.453,0,0,1,1.045-9.543A20.625,20.625,0,0,0,224.643,231.87Z" transform="translate(-220.07 -215.957)" fill="#fff" stroke="#263238" stroke-linejoin="round" stroke-width="1"/>
            <g id="Group_607" data-name="Group 607" transform="translate(0.001 4.544)">
              <path id="Path_442" data-name="Path 442" d="M228.634,255.542c-3.731,1.6-6.191.055-7.459-1.228a9.263,9.263,0,0,0-.242,8.245c1.7,3.309,5.94,1.4,7.3-1.278C228.787,260.19,228.806,257.888,228.634,255.542Z" transform="translate(-220.071 -235.538)" fill="#43b17e" stroke="#263238" stroke-linejoin="round" stroke-width="1"/>
              <line id="Line_24" data-name="Line 24" x1="6.091" y2="3.829" transform="translate(8.332)" fill="none" stroke="#263238" stroke-linejoin="round" stroke-width="1"/>
            </g>
            <line id="Line_25" data-name="Line 25" x1="6.091" y2="3.829" transform="translate(8.333 4.544)" fill="none" stroke="#263238" stroke-linejoin="round" stroke-width="1"/>
          </g>
        </g>
        <path id="Path_443" data-name="Path 443" d="M311.115,284.885s-4.531.971-5.07,1.079-4.207,3.56-4.639,4.207.755,1.079,1.294,1.079,3.452-2.158,3.452-2.158l-.8,1.941,5.825,5.071s1.559-2.8,2.315-4.638a21.448,21.448,0,0,0,1.079-4.639" transform="translate(-251.919 -197.155)" fill="#fff" stroke="#263238" stroke-linejoin="round" stroke-width="1"/>
      </g>
    </g>
    <line id="Line_26" data-name="Line 26" x2="314" transform="translate(9.431 293.595)" fill="none" stroke="#263238" stroke-linejoin="round" stroke-width="1"/>
  </g>
</svg>
