<svg id="App_Logo" data-name="App Logo" xmlns="http://www.w3.org/2000/svg" xmlns:xlink="http://www.w3.org/1999/xlink" width="100" height="82.827" viewBox="0 0 100 82.827">
  <defs>
    <clipPath id="clip-path">
      <rect id="Rectangle_632" data-name="Rectangle 632" width="100" height="15" fill="#fff"/>
    </clipPath>
  </defs>
  <path id="Untitled-5" d="M150.339,106.693l-3.28,2.384c.079.829.114,1.669.114,2.52a27.731,27.731,0,0,1-54.356,7.752l6.538-4.71,1.135.579a10.819,10.819,0,0,0,9.739,15.527h.329a1.235,1.235,0,0,0,.2-.011.386.386,0,0,0,.114-.011c.057,0,.125-.011.182-.011.1-.011.193-.011.3-.023l.25-.034.272-.034a1.784,1.784,0,0,0,.261-.045h0a1.843,1.843,0,0,0,.216-.045.267.267,0,0,0,.091-.023c.17-.034.329-.068.5-.114l.238-.068c.159-.045.318-.091.465-.148.045-.011.091-.034.136-.045.3-.1.579-.216.863-.341.034-.023.079-.034.113-.057s.034-.011.045-.023a1.412,1.412,0,0,0,.227-.114c.011,0,.023-.011.034-.011.079-.045.17-.079.25-.125.011,0,.011-.011.023-.011.091-.045.17-.091.261-.148.114-.057.216-.125.329-.193a1.476,1.476,0,0,0,.17-.113c.023-.011.045-.034.068-.045.057-.034.1-.068.159-.1l.1-.068c.068-.045.125-.091.193-.136h0c.079-.057.148-.113.227-.17a8.449,8.449,0,0,0,.772-.658,1.07,1.07,0,0,0,.113-.113l.091-.091.148-.148.034-.034c.057-.057.114-.113.17-.182l.034-.034a1.215,1.215,0,0,0,.159-.182c.079-.091.159-.182.227-.272s.125-.159.193-.238a10.814,10.814,0,1,0,15.334-14.665A10.593,10.593,0,0,0,129,109.95h0a7.759,7.759,0,0,1-.9.057,6.609,6.609,0,0,1-1.056-.079h0a6.845,6.845,0,1,1,7.9-6.765,6.943,6.943,0,0,1-.5,2.577l-2.27-1.169-1.453,2.838,1.839.942,3.53,1.8c.795.409,1.589.817,2.384,1.214q5.652-3.763,11.316-7.537c-.023-.091-.045-.182-.068-.284q-.119-.494-.272-1.022c-.17-.6-.352-1.18-.545-1.725h0a31.737,31.737,0,0,0-17.7-18.773c-.749-.306-1.5-.59-2.27-.851a36.2,36.2,0,0,0-9.9-1.578c-3.416-.011-16.095,1.067-24.744,11.918a32.69,32.69,0,0,0-6.56,24.29c1.339-.885,2.69-1.782,4.029-2.667-.057-1.487-.284-14.358,9.75-22.757,0,0,7.843-6.572,17.933-6.572.579,0,1.146.023,1.158.023a27.927,27.927,0,0,1,3.541.375c.091.011.182.034.272.045s.2.034.3.057.193.034.284.057a.042.042,0,0,1,.034.011,3.415,3.415,0,0,1,.363.079,27.689,27.689,0,0,1,16.549,10.874l.306.443c.068.091.125.182.182.272a27.8,27.8,0,0,1,2.27,4.063c.011.034.034.068.045.1.045.1.091.193.125.3.057.125.1.25.159.375.045.1.091.216.136.318v.011c.034.1.159.431.454,1.18-2.486,1.634-4.96,3.28-7.446,4.915a.114.114,0,0,1-.159-.148,10.985,10.985,0,0,0,.885-4.586,10.819,10.819,0,0,0-19.364-6.333,1.621,1.621,0,0,0-.159-.227c-.023-.034-.057-.079-.079-.114a2.3,2.3,0,0,0-.148-.2.011.011,0,0,0-.011-.011c-.057-.068-.1-.148-.159-.216-.079-.1-.148-.193-.227-.3-.034-.045-.079-.091-.114-.136a.569.569,0,0,0-.079-.091.6.6,0,0,0-.113-.125c-.023-.034-.057-.057-.079-.091a.538.538,0,0,0-.113-.114c-.125-.136-.261-.272-.4-.4a.569.569,0,0,0-.091-.079,1.977,1.977,0,0,0-.17-.148.248.248,0,0,0-.057-.045c-.057-.057-.125-.1-.182-.159a.2.2,0,0,0-.057-.045c-.079-.068-.159-.125-.227-.193a.011.011,0,0,1-.011-.011c-.079-.057-.159-.125-.238-.182a.4.4,0,0,0-.091-.057c-.045-.034-.1-.068-.148-.1s-.057-.045-.091-.068c-.079-.057-.159-.1-.227-.159-.011-.011-.023-.023-.034-.023-.091-.057-.17-.113-.261-.159a2.285,2.285,0,0,0-.284-.159.04.04,0,0,1-.023-.011,1.236,1.236,0,0,1-.125-.068.939.939,0,0,0-.148-.079c-.045-.023-.1-.045-.148-.068a2.729,2.729,0,0,0-.261-.125c-.17-.079-.34-.159-.522-.227-.045-.023-.091-.034-.136-.057-.079-.034-.159-.057-.25-.091-.068-.023-.125-.045-.193-.068l-.2-.068h0c-.045-.011-.091-.034-.136-.045a.1.1,0,0,0-.057-.011l-.136-.034c-.079-.023-.159-.045-.25-.068a1.978,1.978,0,0,0-.25-.057h0c-.091-.023-.17-.034-.261-.057s-.17-.034-.261-.057-.182-.034-.261-.045h0l-.272-.034a1.251,1.251,0,0,0-.2-.023c-.034,0-.068-.011-.1-.011-.079-.011-.159-.011-.238-.023s-.17-.011-.261-.023h-.023c-.079,0-.159-.011-.238-.011h-.306a10.814,10.814,0,0,0-.772,21.6h0c.182-.011.375-.023.568-.023.25,0,.5.011.738.034h0a.766.766,0,0,1,.159.023c.057.011.1.011.159.023s.079.011.114.023.057.011.091.011l.318.068a.945.945,0,0,1,.17.045,4.726,4.726,0,0,1,.568.182l.1.034a3.739,3.739,0,0,1,.443.193c.045.023.079.034.125.057a.607.607,0,0,0,.125.057c.148.079.284.159.431.238l.272.17.1.068c.091.057.17.125.261.193.034.023.068.057.1.079a.011.011,0,0,1,.011.011c.034.034.079.057.114.091.079.068.159.136.227.2a1.025,1.025,0,0,0,.114.1h0l.1.1.114.113a1.748,1.748,0,0,1,.136.148h0c.057.057.1.125.159.193a.157.157,0,0,1,.034.045c.011.011.023.023.023.034s.011.023.023.034.011.011.011.023a.04.04,0,0,1,.011.023c0,.011.011.011.011.023l.034.034c.023.023.045.057.068.079a1.48,1.48,0,0,1,.114.17c.079.113.148.227.227.341.045.068.079.136.114.193.079.136.148.272.216.409,0,.011.011.023.011.034.023.057.057.114.079.17a7.256,7.256,0,0,1,.318.874,1.659,1.659,0,0,1,.057.227c.023.079.034.148.057.227s.034.148.045.216v.034l.034.17c0,.034.011.057.011.091.011.068.011.136.023.2s.011.159.023.238v.011c0,.068.011.148.011.216v.272a6.846,6.846,0,1,1-13.132-2.724l2.2,1.124,1.453-2.838-1.7-.874-3.541-1.827c-1.056-.568-2.123-1.135-3.178-1.7h0c-2.361,1.7-4.71,3.394-7.071,5.1l-3.8,2.735c.136.59.3,1.169.465,1.737h0a31.642,31.642,0,0,0,61.609-13.734Zm-39.908,2.531c-.011,0-.238,0-.533-.023-.227-.023-.409-.045-.522-.057h0a6.845,6.845,0,1,1,7.9-6.765,6.943,6.943,0,0,1-.5,2.577l-2.27-1.169-1.453,2.838,1.839.942,3.53,1.8q4.733,2.128,9.477,4.268c.238.011.488.034.738.057a.144.144,0,0,1,.068.011,6.973,6.973,0,0,1,6.038,6.8,6.844,6.844,0,1,1-13.688,0,6.748,6.748,0,0,1,.568-2.713l2.2,1.124,1.453-2.838-1.7-.874c-1.192-.613-2.395-1.226-3.587-1.839C113.133,110.222,110.727,109.224,110.432,109.224Z" transform="translate(-69.466 -79.599)" fill="#fff"/>
  <g id="Mask_Group_6" data-name="Mask Group 6" transform="translate(0 67.827)" clip-path="url(#clip-path)">
    <text id="Simply_Smart" data-name="Simply Smart" transform="translate(2.292 10.966)" fill="#fff" font-size="13" font-family="Montserrat-Bold, Montserrat" font-weight="700" letter-spacing="-0.005em"><tspan x="0" y="0">Simply Smart</tspan></text>
    <text id="Make_living_easy_" data-name="Make living easy " transform="translate(44 116)" fill="#fff" font-size="10" font-family="Roboto-Bold, Roboto" font-weight="700" opacity="0"><tspan x="-38.792" y="0">Make living easy </tspan></text>
  </g>
</svg>
